<svg width="389px" height="815px"
 viewBox="0.00 0.00 388.58 815.24" xmlns="http://www.w3.org/2000/svg" xmlns:xlink="http://www.w3.org/1999/xlink">
<g id="graph0" class="graph" transform="scale(1.0 1.0) rotate(0.0) translate(4.0 811.24)">
<title>example1</title>
<polygon fill="white" stroke="transparent" points="-4,4 -4,-811.24 384.58,-811.24 384.58,4 -4,4"/>
<!-- 6 -->
<g id="node1" class="node">
<title>6</title>
<polygon fill="none" stroke="black" points="260.48,-135.23 177.1,-135.23 177.1,-94.03 260.48,-94.03 260.48,-135.23"/>
<text text-anchor="start" x="185.2" y="-118.83" font-family="Courier,monospace" font-size="14.00"> &#160;&#160;&#160;x++;</text>
<text text-anchor="start" x="185.2" y="-102.03" font-family="Courier,monospace" font-size="14.00">}</text>
</g>
<!-- 7 -->
<g id="node8" class="node">
<title>7</title>
<ellipse fill="none" stroke="black" cx="218.79" cy="-28.42" rx="28.33" ry="28.33"/>
<text text-anchor="middle" x="218.79" y="-24.22" font-family="Courier,monospace" font-size="14.00">End</text>
</g>
<!-- 6&#45;&gt;7 -->
<g id="edge1" class="edge link&#45;class">
<title>6&#45;&gt;7</title>
<path fill="none" stroke="black" d="M218.79,-93.67C218.79,-85.69 218.79,-76.21 218.79,-67.03"/>
<polygon fill="black" stroke="black" points="222.29,-66.88 218.79,-56.88 215.29,-66.88 222.29,-66.88"/>
</g>
<!-- 1 -->
<g id="node2" class="node">
<title>1</title>
<polygon fill="none" stroke="black" points="356.76,-690.23 172.82,-690.23 172.82,-598.23 356.76,-598.23 356.76,-690.23"/>
<text text-anchor="start" x="180.8" y="-673.63" font-family="Courier,monospace" font-size="14.00">{</text>
<text text-anchor="start" x="180.8" y="-656.83" font-family="Courier,monospace" font-size="14.00"> &#160;&#160;&#160;int x = start();</text>
<text text-anchor="start" x="180.8" y="-640.03" font-family="Courier,monospace" font-size="14.00"> &#160;&#160;&#160;x++;</text>
<text text-anchor="start" x="180.8" y="-623.23" font-family="Courier,monospace" font-size="14.00"> &#160;&#160;&#160;if (x == 1)</text>
<text text-anchor="start" x="180.8" y="-606.43" font-family="Courier,monospace" font-size="14.00"> &#160;&#160;&#160;&#160;&#160;&#160;&#160;</text>
</g>
<!-- 2 -->
<g id="node9" class="node">
<title>2</title>
<polygon fill="none" stroke="black" points="264.79,-561.23 200.26,-543.23 264.79,-525.23 329.32,-543.23 264.79,-561.23"/>
<text text-anchor="middle" x="264.79" y="-539.03" font-family="Courier,monospace" font-size="14.00">x == 1</text>
</g>
<!-- 1&#45;&gt;2 -->
<g id="edge2" class="edge link&#45;class">
<title>1&#45;&gt;2</title>
<path fill="none" stroke="black" d="M264.79,-598.08C264.79,-589 264.79,-579.73 264.79,-571.49"/>
<polygon fill="black" stroke="black" points="268.29,-571.36 264.79,-561.36 261.29,-571.36 268.29,-571.36"/>
</g>
<!-- 4 -->
<g id="node3" class="node">
<title>4</title>
<polygon fill="none" stroke="black" points="214.79,-319.63 150.26,-301.63 214.79,-283.63 279.32,-301.63 214.79,-319.63"/>
<text text-anchor="middle" x="214.79" y="-297.43" font-family="Courier,monospace" font-size="14.00">x == 1</text>
</g>
<!-- 5 -->
<g id="node4" class="node">
<title>5</title>
<polygon fill="none" stroke="black" points="133.37,-231.03 0.21,-231.03 0.21,-172.23 133.37,-172.23 133.37,-231.03"/>
<text text-anchor="start" x="8" y="-214.23" font-family="Courier,monospace" font-size="14.00">{</text>
<text text-anchor="start" x="8" y="-197.43" font-family="Courier,monospace" font-size="14.00"> &#160;&#160;&#160;int y = 2;</text>
<text text-anchor="start" x="8" y="-180.63" font-family="Courier,monospace" font-size="14.00">}</text>
</g>
<!-- 4&#45;&gt;5 -->
<g id="edge4" class="edge link&#45;class">
<title>4&#45;&gt;5</title>
<path fill="none" stroke="green" d="M196.64,-288.62C177.21,-275.75 145.49,-254.75 118.27,-236.72"/>
<polygon fill="green" stroke="green" points="119.88,-233.59 109.61,-230.99 116.02,-239.43 119.88,-233.59"/>
<text text-anchor="start" x="158.79" y="-253.03" font-family="arial" font-size="14.00" fill="#006400">True</text>
</g>
<!-- 8 -->
<g id="node5" class="node">
<title>8</title>
<polygon fill="none" stroke="black" points="285.37,-231.03 152.21,-231.03 152.21,-172.23 285.37,-172.23 285.37,-231.03"/>
<text text-anchor="start" x="160" y="-214.23" font-family="Courier,monospace" font-size="14.00">{</text>
<text text-anchor="start" x="160" y="-197.43" font-family="Courier,monospace" font-size="14.00"> &#160;&#160;&#160;int y = 5;</text>
<text text-anchor="start" x="160" y="-180.63" font-family="Courier,monospace" font-size="14.00">}</text>
</g>
<!-- 4&#45;&gt;8 -->
<g id="edge3" class="edge link&#45;class">
<title>4&#45;&gt;8</title>
<path fill="none" stroke="red" d="M215.49,-283.56C215.96,-271.91 216.61,-256 217.21,-241.36"/>
<polygon fill="red" stroke="red" points="220.72,-241.15 217.63,-231.01 213.73,-240.86 220.72,-241.15"/>
<text text-anchor="start" x="216.79" y="-253.03" font-family="arial" font-size="14.00" fill="#ff0000">False</text>
</g>
<!-- 5&#45;&gt;6 -->
<g id="edge5" class="edge link&#45;class">
<title>5&#45;&gt;6</title>
<path fill="none" stroke="black" d="M117.4,-172.33C135.79,-162.05 156.41,-150.51 174.24,-140.55"/>
<polygon fill="black" stroke="black" points="176.26,-143.43 183.28,-135.49 172.84,-137.32 176.26,-143.43"/>
</g>
<!-- 8&#45;&gt;6 -->
<g id="edge6" class="edge link&#45;class">
<title>8&#45;&gt;6</title>
<path fill="none" stroke="black" d="M218.79,-172.33C218.79,-163.74 218.79,-154.29 218.79,-145.6"/>
<polygon fill="black" stroke="black" points="222.29,-145.49 218.79,-135.49 215.29,-145.49 222.29,-145.49"/>
</g>
<!-- 3 -->
<g id="node6" class="node">
<title>3</title>
<polygon fill="none" stroke="black" points="285.77,-472.63 143.81,-472.63 143.81,-413.83 285.77,-413.83 285.77,-472.63"/>
<text text-anchor="start" x="151.8" y="-455.83" font-family="Courier,monospace" font-size="14.00">{</text>
<text text-anchor="start" x="151.8" y="-439.03" font-family="Courier,monospace" font-size="14.00"> &#160;&#160;&#160;if (x == 1)</text>
<text text-anchor="start" x="151.8" y="-422.23" font-family="Courier,monospace" font-size="14.00"> &#160;&#160;&#160;&#160;</text>
</g>
<!-- 3&#45;&gt;4 -->
<g id="edge7" class="edge link&#45;class">
<title>3&#45;&gt;4</title>
<path fill="none" stroke="black" d="M214.79,-413.98C214.79,-389.52 214.79,-354.37 214.79,-330.13"/>
<polygon fill="black" stroke="black" points="218.29,-329.84 214.79,-319.84 211.29,-329.84 218.29,-329.84"/>
</g>
<!-- 0 -->
<g id="node7" class="node">
<title>0</title>
<ellipse fill="none" stroke="black" cx="264.79" cy="-767.23" rx="40.01" ry="40.01"/>
<text text-anchor="middle" x="264.79" y="-763.03" font-family="Courier,monospace" font-size="14.00">Start</text>
</g>
<!-- 0&#45;&gt;1 -->
<g id="edge8" class="edge link&#45;class">
<title>0&#45;&gt;1</title>
<path fill="none" stroke="black" d="M264.79,-726.95C264.79,-718.62 264.79,-709.67 264.79,-700.86"/>
<polygon fill="black" stroke="black" points="268.29,-700.63 264.79,-690.63 261.29,-700.63 268.29,-700.63"/>
</g>
<!-- 2&#45;&gt;3 -->
<g id="edge10" class="edge link&#45;class">
<title>2&#45;&gt;3</title>
<path fill="none" stroke="green" d="M257.2,-527.35C251.03,-515.26 242.06,-497.68 233.96,-481.8"/>
<polygon fill="green" stroke="green" points="236.97,-480.01 229.31,-472.7 230.74,-483.19 236.97,-480.01"/>
<text text-anchor="start" x="245.79" y="-494.63" font-family="arial" font-size="14.00" fill="#006400">True</text>
</g>
<!-- 9 -->
<g id="node10" class="node">
<title>9</title>
<polygon fill="none" stroke="black" points="380.37,-396.23 247.21,-396.23 247.21,-337.43 380.37,-337.43 380.37,-396.23"/>
<text text-anchor="start" x="255" y="-379.43" font-family="Courier,monospace" font-size="14.00">{</text>
<text text-anchor="start" x="255" y="-362.63" font-family="Courier,monospace" font-size="14.00"> &#160;&#160;&#160;int y = 5;</text>
<text text-anchor="start" x="255" y="-345.83" font-family="Courier,monospace" font-size="14.00">}</text>
</g>
<!-- 2&#45;&gt;9 -->
<g id="edge9" class="edge link&#45;class">
<title>2&#45;&gt;9</title>
<path fill="none" stroke="red" d="M272.49,-527.08C279.26,-513.19 288.93,-491.88 294.79,-472.43 301.28,-450.91 305.89,-426.2 308.95,-406.2"/>
<polygon fill="red" stroke="red" points="312.42,-406.61 310.41,-396.21 305.5,-405.6 312.42,-406.61"/>
<text text-anchor="start" x="288.79" y="-494.63" font-family="arial" font-size="14.00" fill="#ff0000">False</text>
</g>
<!-- 9&#45;&gt;6 -->
<g id="edge11" class="edge link&#45;class">
<title>9&#45;&gt;6</title>
<path fill="none" stroke="black" d="M317.79,-337.48C321.95,-297.81 324.29,-224.74 294.79,-172.43 287.82,-160.08 276.95,-149.61 265.58,-141.15"/>
<polygon fill="black" stroke="black" points="267.46,-138.2 257.26,-135.36 263.46,-143.95 267.46,-138.2"/>
</g>
</g>
</svg>
