<svg xmlns="http://www.w3.org/2000/svg" width="320" height="33" fill="none" viewBox="0 0 320 33">
  <g clip-path="url(#a)">
    <path fill="#000" d="M314.739 13.529c-.518 0-.959.119-1.323.357a3.19 3.19 0 0 0-.882.903 4.49 4.49 0 0 0-.525 1.176c-.112.42-.182.819-.21 1.197l1.344.042a47.175 47.175 0 0 0 2.793 0l1.386-.042c0-.378-.035-.777-.105-1.197a3.41 3.41 0 0 0-.378-1.176 2.415 2.415 0 0 0-.777-.903c-.336-.238-.777-.357-1.323-.357Zm-4.851 4.85c0-1.721.406-3.072 1.218-4.052.826-.98 2.023-1.47 3.591-1.47.742 0 1.379.119 1.911.357a3.798 3.798 0 0 1 1.365.924c.364.378.63.826.798 1.344a4.969 4.969 0 0 1 .252 2.079c0 .126-.007.259-.021.399l-2.247-.042c-.742-.014-1.491-.021-2.247-.021-.462 0-.924.007-1.386.02l-1.365.043a1.74 1.74 0 0 0-.021.315v.273c0 .546.077 1.057.231 1.533.168.476.406.889.714 1.239.308.336.686.609 1.134.819.448.196.966.294 1.554.294.28 0 .567-.035.861-.105a6.34 6.34 0 0 0 .861-.315c.28-.14.539-.301.777-.483.252-.182.469-.378.651-.588l.105.063-.126 1.029c-.42.336-.945.623-1.575.86a5.314 5.314 0 0 1-1.932.358 6.168 6.168 0 0 1-2.079-.336 4.93 4.93 0 0 1-1.617-1.008 4.853 4.853 0 0 1-1.05-1.575 5.264 5.264 0 0 1-.357-1.953Zm-3.962-1.239c0-1.05-.203-1.84-.609-2.372-.406-.546-.966-.82-1.68-.82-.98 0-1.701.302-2.163.904-.448.602-.672 1.449-.672 2.54v1.786c0 .63.007 1.295.021 1.995.028.686.077 1.309.147 1.869a10.909 10.909 0 0 0-1.89 0c.07-.56.112-1.183.126-1.87.028-.7.042-1.364.042-1.994v-2.184c0-.63-.014-1.288-.042-1.974-.014-.7-.056-1.351-.126-1.953.392.07.707.105.945.105.112 0 .231-.007.357-.021.14-.028.301-.056.483-.084-.042.56-.063 1.12-.063 1.68h.042c.392-.602.861-1.064 1.407-1.386.546-.336 1.197-.504 1.953-.504.392 0 .784.056 1.176.168.406.112.77.308 1.092.588.322.266.581.637.777 1.113.21.462.315 1.057.315 1.785 0 .602-.014 1.225-.042 1.869a45.53 45.53 0 0 0-.042 2.016v2.037l.042.609a8.871 8.871 0 0 0-1.743 0l.084-2.247c.042-.77.063-1.561.063-2.373V17.14Zm-9.03-2.351c-.07-.084-.21-.161-.42-.231a1.797 1.797 0 0 0-.609-.105 1.77 1.77 0 0 0-.903.23 2.08 2.08 0 0 0-.672.63c-.182.253-.322.56-.42.925-.098.35-.147.728-.147 1.134v4.473c.014.49.042.889.084 1.197a8.871 8.871 0 0 0-1.722 0c.042-.476.063-1.12.063-1.932.014-.826.021-1.834.021-3.024v-.672c0-.546-.007-1.176-.021-1.89 0-.714-.021-1.533-.063-2.457.154.028.301.056.441.084a4.436 4.436 0 0 0 .84 0c.14-.028.287-.056.441-.084-.056.504-.091.903-.105 1.197v.84l.042.02c.826-1.511 1.75-2.267 2.772-2.267.126 0 .231.007.315.02.098.015.217.05.357.106-.07.168-.112.427-.126.777-.014.336-.021.644-.021.924l-.147.105Zm-11.319-1.26c-.518 0-.959.119-1.323.357a3.19 3.19 0 0 0-.882.903 4.49 4.49 0 0 0-.525 1.176c-.112.42-.182.819-.21 1.197l1.344.042a47.175 47.175 0 0 0 2.793 0l1.386-.042c0-.378-.035-.777-.105-1.197a3.41 3.41 0 0 0-.378-1.176 2.415 2.415 0 0 0-.777-.903c-.336-.238-.777-.357-1.323-.357Zm-4.851 4.85c0-1.721.406-3.072 1.218-4.052.826-.98 2.023-1.47 3.591-1.47.742 0 1.379.119 1.911.357a3.798 3.798 0 0 1 1.365.924c.364.378.63.826.798 1.344a4.969 4.969 0 0 1 .252 2.079c0 .126-.007.259-.021.399l-2.247-.042c-.742-.014-1.491-.021-2.247-.021-.462 0-.924.007-1.386.02l-1.365.043a1.74 1.74 0 0 0-.021.315v.273c0 .546.077 1.057.231 1.533.168.476.406.889.714 1.239.308.336.686.609 1.134.819.448.196.966.294 1.554.294.28 0 .567-.035.861-.105a6.34 6.34 0 0 0 .861-.315c.28-.14.539-.301.777-.483.252-.182.469-.378.651-.588l.105.063-.126 1.029c-.42.336-.945.623-1.575.86a5.314 5.314 0 0 1-1.932.358 6.168 6.168 0 0 1-2.079-.336 4.93 4.93 0 0 1-1.617-1.008 4.853 4.853 0 0 1-1.05-1.575 5.264 5.264 0 0 1-.357-1.953Zm-9.674-.104c0 .84.084 1.533.252 2.079.182.546.406.987.672 1.323.28.322.595.546.945.672s.693.189 1.029.189c.546 0 1.015-.133 1.407-.399.392-.28.714-.637.966-1.071.266-.448.455-.952.567-1.512.126-.56.189-1.12.189-1.68 0-1.344-.259-2.366-.777-3.066-.518-.714-1.281-1.071-2.289-1.071-.504 0-.945.119-1.323.357a2.79 2.79 0 0 0-.924.966 5.04 5.04 0 0 0-.546 1.449 8.776 8.776 0 0 0-.168 1.764Zm5.964 2.772a5.136 5.136 0 0 1-.462.735c-.182.252-.42.49-.714.714-.28.224-.616.406-1.008.546s-.847.21-1.365.21a4.72 4.72 0 0 1-1.575-.273 3.692 3.692 0 0 1-1.365-.882c-.392-.42-.714-.952-.966-1.596-.238-.658-.357-1.442-.357-2.352 0-.896.133-1.673.399-2.331.266-.658.609-1.204 1.029-1.638a4.113 4.113 0 0 1 1.449-.987 4.287 4.287 0 0 1 1.638-.336c1.554 0 2.632.7 3.234 2.1h.042v-2.058c0-.532-.007-1.064-.021-1.596 0-.546-.007-1.064-.021-1.554 0-.49-.007-.952-.021-1.386 0-.434-.007-.819-.021-1.155.168.028.329.056.483.084a5.1 5.1 0 0 0 .903 0c.154-.028.322-.056.504-.084a34.79 34.79 0 0 0-.105 1.953c-.028.84-.056 1.771-.084 2.793l-.042 3.15a229.482 229.482 0 0 0-.021 2.961c0 .966.007 1.834.021 2.604l.042 2.373a8.034 8.034 0 0 0-1.617 0l.063-1.995h-.042Zm-17.78-2.961c0 .588.049 1.155.147 1.7.112.547.294 1.037.546 1.47.252.42.588.757 1.008 1.009.42.252.938.378 1.554.378.616 0 1.134-.126 1.554-.378.42-.252.756-.588 1.008-1.008.252-.434.427-.924.525-1.47a8.446 8.446 0 0 0 .168-1.701c0-.588-.056-1.155-.168-1.701a4.249 4.249 0 0 0-.525-1.45 2.842 2.842 0 0 0-1.008-1.028c-.42-.252-.938-.378-1.554-.378-.616 0-1.134.126-1.554.378-.42.252-.756.595-1.008 1.029-.252.42-.434.903-.546 1.449a9.613 9.613 0 0 0-.147 1.7Zm-1.848 0c0-.952.147-1.757.441-2.415.308-.672.707-1.211 1.197-1.617a4.492 4.492 0 0 1 1.638-.903 6.001 6.001 0 0 1 1.827-.294c.616 0 1.225.098 1.827.294a4.492 4.492 0 0 1 1.638.903c.49.406.882.945 1.176 1.617.308.658.462 1.463.462 2.415s-.154 1.764-.462 2.436c-.294.658-.686 1.197-1.176 1.617a4.393 4.393 0 0 1-1.638.86 6.767 6.767 0 0 1-1.827.253 6.921 6.921 0 0 1-1.827-.252 4.393 4.393 0 0 1-1.638-.861c-.49-.42-.889-.96-1.197-1.617-.294-.672-.441-1.484-.441-2.436Zm-15.995-9.744c.966 1.988 1.939 3.92 2.919 5.796.994 1.876 2.03 3.801 3.108 5.775.14-.266.343-.644.609-1.134.266-.504.574-1.078.924-1.722.35-.644.721-1.337 1.113-2.079.406-.756.812-1.519 1.218-2.289l1.239-2.268c.406-.742.784-1.435 1.134-2.079h.273c.154 1.344.294 2.646.42 3.906.14 1.246.28 2.478.42 3.696l.42 3.591c.14 1.176.294 2.345.462 3.507a3.06 3.06 0 0 0-.504-.042h-.987a2.94 2.94 0 0 0-.483.042c-.154-1.862-.308-3.668-.462-5.418-.154-1.75-.343-3.535-.567-5.355h-.042a667.45 667.45 0 0 0-2.856 5.271 82.446 82.446 0 0 0-2.646 5.46h-.189a155.322 155.322 0 0 0-2.646-5.292 648.274 648.274 0 0 1-2.751-5.439h-.042c-.098.868-.21 1.813-.336 2.835a243.845 243.845 0 0 0-.315 3.003c-.098.98-.182 1.911-.252 2.793-.07.868-.105 1.582-.105 2.142a5.948 5.948 0 0 0-.735-.042c-.266 0-.511.014-.735.042.182-1.134.371-2.33.567-3.59.196-1.26.385-2.528.567-3.802.182-1.274.35-2.527.504-3.759.154-1.246.287-2.429.399-3.549h.357Zm-15.085 14.721c-.154-.378-.357-.868-.609-1.47a79.257 79.257 0 0 0-.777-1.89 218.97 218.97 0 0 0-.861-2.037c-.294-.7-.574-1.351-.84-1.953a137.676 137.676 0 0 0-1.113-2.646c.182.028.35.056.504.084a5.1 5.1 0 0 0 .924 0c.154-.028.322-.056.504-.084a59.097 59.097 0 0 0 1.449 3.99 327.711 327.711 0 0 0 1.68 4.074 52.303 52.303 0 0 0 1.68-3.948 63.311 63.311 0 0 0 1.449-4.116c.28.07.511.105.693.105.182 0 .413-.035.693-.105-.098.196-.259.532-.483 1.008-.21.462-.469 1.022-.777 1.68l-.987 2.163c-.35.784-.714 1.596-1.092 2.436l-1.092 2.478c-.364.812-.7 1.582-1.008 2.31-.308.742-.581 1.407-.819 1.995a34.507 34.507 0 0 0-.504 1.428 3.026 3.026 0 0 0-.714-.105c-.196 0-.434.035-.714.105a42.597 42.597 0 0 0 2.814-5.502Zm-7.015-5.334c0-.644-.084-1.211-.252-1.701-.154-.504-.364-.924-.63-1.26a2.446 2.446 0 0 0-.903-.756 2.176 2.176 0 0 0-1.05-.273c-.434 0-.854.084-1.26.252-.392.154-.735.42-1.029.798-.294.364-.532.847-.714 1.449-.168.588-.252 1.316-.252 2.184 0 2.814 1.022 4.221 3.066 4.221a2.24 2.24 0 0 0 1.197-.336c.364-.238.679-.574.945-1.008.28-.434.497-.952.651-1.554a8.14 8.14 0 0 0 .231-2.016Zm1.848.063c0 .812-.126 1.554-.378 2.226a5.228 5.228 0 0 1-1.008 1.743c-.42.476-.924.847-1.512 1.113a4.598 4.598 0 0 1-1.869.378c-.672 0-1.281-.14-1.827-.42-.532-.294-.938-.644-1.218-1.05-.504.406-.973.812-1.407 1.218h-.378c.028-.336.049-.742.063-1.218.028-.476.049-.98.063-1.512.014-.546.021-1.099.021-1.659.014-.56.021-1.078.021-1.554v-3.801c0-.476-.007-.994-.021-1.554 0-.56-.007-1.113-.021-1.659a49.565 49.565 0 0 0-.063-1.554 25.246 25.246 0 0 0-.063-1.281c.392.07.707.105.945.105.154 0 .315-.007.483-.021.168-.028.35-.056.546-.084-.042.28-.077.728-.105 1.344a73.59 73.59 0 0 0-.063 2.037l-.042 2.31c-.014.784-.028 1.498-.042 2.142h.042c.476-.756 1.001-1.309 1.575-1.659.574-.35 1.239-.525 1.995-.525.728 0 1.358.14 1.89.42a3.82 3.82 0 0 1 1.323 1.071c.35.448.609.973.777 1.575.182.588.273 1.211.273 1.869ZM12.328 25.818c-1.728 0-3.35-.306-4.864-.933-1.514-.612-2.814-1.483-3.9-2.615-1.086-1.132-1.958-2.493-2.6-4.1C.32 16.566 0 14.79 0 12.849c0-1.943.321-3.793.979-5.4.658-1.605 1.545-2.951 2.661-4.037A11.574 11.574 0 0 1 7.556.887C9.055.291 10.646 0 12.328 0c1.682 0 3.242.29 4.741.887A11.875 11.875 0 0 1 21 3.411c1.132 1.086 2.02 2.447 2.677 4.038.658 1.606.979 3.395.979 5.399s-.321 3.717-.964 5.323c-.642 1.606-1.514 2.967-2.615 4.099a11.435 11.435 0 0 1-3.916 2.615 12.77 12.77 0 0 1-4.833.933Zm0-1.499c1.407 0 2.661-.275 3.762-.826a7.995 7.995 0 0 0 2.8-2.31c.764-.993 1.345-2.202 1.743-3.609.398-1.407.612-2.982.612-4.726 0-3.487-.795-6.256-2.386-8.305-1.59-2.05-3.763-3.06-6.516-3.06s-4.955 1.025-6.53 3.06C4.236 6.593 3.44 9.345 3.44 12.848s.2 3.304.582 4.726c.397 1.407.963 2.616 1.728 3.61.765.994 1.698 1.774 2.799 2.31 1.101.55 2.37.825 3.793.825h-.015Zm24.151 1.5c-1.499 0-2.768-.352-3.793-1.071-1.04-.72-1.805-1.56-2.34-2.57v10.049h-2.784V7.617h2.707v3.426c.505-1.07 1.27-1.973 2.31-2.707 1.04-.734 2.355-1.101 3.915-1.101s2.203.198 3.166.611c.98.398 1.82.995 2.524 1.775.719.78 1.27 1.743 1.667 2.89.398 1.148.612 2.448.612 3.916s-.214 2.83-.627 4.007c-.413 1.178-.979 2.157-1.698 2.952a7.049 7.049 0 0 1-2.554 1.82 8.045 8.045 0 0 1-3.15.628l.045-.016Zm-.535-1.5c1.774 0 3.135-.703 4.038-2.126.917-1.407 1.376-3.35 1.376-5.797 0-2.447-.459-4.252-1.392-5.628-.933-1.377-2.263-2.065-4.022-2.065-1.76 0-2.998.719-4.084 2.141-1.086 1.423-1.621 3.274-1.621 5.553 0 2.278.55 4.282 1.651 5.735 1.102 1.453 2.448 2.172 4.038 2.172l.016.015ZM63.2 20.083c-.337 1.759-1.178 3.15-2.555 4.19-1.36 1.04-3.059 1.545-5.078 1.545s-2.386-.214-3.456-.642a8 8 0 0 1-2.784-1.85c-.78-.811-1.392-1.79-1.835-2.953-.444-1.162-.658-2.478-.658-3.961 0-1.484.23-2.784.688-3.931.459-1.147 1.086-2.11 1.85-2.89a7.95 7.95 0 0 1 2.632-1.76 7.975 7.975 0 0 1 3.013-.612c1.025 0 2.141.184 3.135.551a7.519 7.519 0 0 1 2.631 1.621c.765.72 1.361 1.606 1.805 2.677.444 1.07.658 2.31.658 3.701v.566H49.954v.077c0 2.325.505 4.236 1.499 5.72.994 1.484 2.463 2.233 4.39 2.233 1.927 0 2.753-.397 3.762-1.193 1.01-.795 1.652-1.82 1.912-3.074h1.667l.016-.015ZM55.032 8.58c-1.453 0-2.615.52-3.502 1.56-.888 1.04-1.392 2.63-1.515 4.772h10.019c-.046-2.065-.474-3.64-1.3-4.726-.826-1.086-2.05-1.622-3.687-1.622l-.015.016Zm14.454 8.58v8.305h-2.784V7.617h2.708v3.67c.443-1.162 1.193-2.125 2.202-2.905 1.025-.765 2.249-1.163 3.671-1.163 1.422 0 3.288.536 4.543 1.591 1.254 1.055 1.866 2.921 1.866 5.613v11.043h-2.784V14.21c0-1.988-.382-3.41-1.162-4.237-.765-.825-1.76-1.254-2.983-1.254-1.224 0-2.723.72-3.763 2.157-1.04 1.438-1.544 3.533-1.544 6.286h.03Zm24.044-3.059h-4.803v11.364h-2.952V.52h7.77c3.32 0 5.813.566 7.48 1.713 1.667 1.147 2.493 2.8 2.493 4.986 0 2.188-.168 1.668-.505 2.386a5.77 5.77 0 0 1-1.331 1.836 7.219 7.219 0 0 1-1.973 1.254 8.523 8.523 0 0 1-2.416.627v.077a5.734 5.734 0 0 1 3.288 1.468c.933.826 1.637 2.157 2.08 3.992l1.637 6.623h-3.059l-1.606-6.73c-.459-1.897-1.193-3.15-2.248-3.747-1.04-.597-2.325-.888-3.855-.888v-.015ZM88.727 2.095v10.432h4.742c2.463 0 4.221-.505 5.277-1.5 1.04-.993 1.56-2.248 1.56-3.746 0-1.5-.505-2.769-1.514-3.748-1.01-.979-2.769-1.468-5.293-1.468h-4.772v.03ZM122.5 20.083c-.336 1.759-1.177 3.15-2.554 4.19-1.361 1.04-3.059 1.545-5.078 1.545s-2.386-.214-3.457-.642a8.013 8.013 0 0 1-2.784-1.85c-.78-.811-1.391-1.79-1.835-2.953-.443-1.162-.658-2.478-.658-3.961 0-1.484.23-2.784.689-3.931.459-1.147 1.086-2.11 1.85-2.89a7.952 7.952 0 0 1 2.631-1.76 7.977 7.977 0 0 1 3.013-.612 9.28 9.28 0 0 1 3.136.551 7.527 7.527 0 0 1 2.631 1.621c.764.72 1.361 1.606 1.804 2.677.444 1.07.658 2.31.658 3.701v.566h-13.291v.077c0 2.325.504 4.236 1.499 5.72.994 1.484 2.462 2.233 4.389 2.233s2.753-.397 3.763-1.193c1.009-.795 1.652-1.82 1.912-3.074h1.667l.015-.015ZM114.332 8.58c-1.453 0-2.616.52-3.503 1.56s-1.392 2.63-1.514 4.772h10.018c-.046-2.065-.474-3.64-1.3-4.726-.826-1.086-2.05-1.622-3.686-1.622l-.015.016Zm26.858 16.886-4.986-14.317-4.696 14.316h-2.095l-6.271-17.849h2.89l5.017 14.316 4.665-14.316h2.096l5.017 14.393 4.665-14.393h1.713l-5.92 17.85h-2.095Zm13.062-10.34V25.45h-2.784V7.601h2.708v3.564c.091-.305.214-.611.367-.902.153-.29.336-.581.55-.841.505-.612 1.086-1.086 1.744-1.407.658-.322 1.407-.474 2.248-.474.842 0 .337 0 .505.015.168 0 .321.03.459.046v2.386c-.245-.03-.505-.046-.795-.092a9.176 9.176 0 0 0-.949-.046 4.66 4.66 0 0 0-1.453.23c-.474.152-.902.428-1.3.825-.398.398-.703.934-.948 1.622-.245.688-.352 1.56-.352 2.6Zm7.999-11.61V.353h3.059v3.166h-3.059Zm.138 21.95V7.616h2.784v17.85h-2.784Zm12.634.03c-1.453 0-2.524-.275-3.227-.826-.704-.55-1.056-1.636-1.056-3.273V9.039h-3.242V7.617h3.242V4.344l2.677-1.881h.107v5.17h4.849v1.422h-4.849v12.404c0 1.04.168 1.744.505 2.096.336.351.963.535 1.881.535h2.463v1.361c-.383.03-.857.046-1.408.046-.565 0-1.208.015-1.942.015v-.015Zm20.067-5.414c-.336 1.759-1.177 3.15-2.554 4.19-1.361 1.04-3.059 1.545-5.078 1.545s-2.386-.214-3.457-.642a8 8 0 0 1-2.783-1.85c-.781-.811-1.392-1.79-1.836-2.953-.443-1.162-.658-2.478-.658-3.961 0-1.484.23-2.784.689-3.931.459-1.147 1.086-2.11 1.85-2.89a7.952 7.952 0 0 1 2.631-1.76 7.977 7.977 0 0 1 3.013-.612 9.28 9.28 0 0 1 3.136.551 7.527 7.527 0 0 1 2.631 1.621c.764.72 1.361 1.606 1.804 2.677.444 1.07.658 2.31.658 3.701v.566h-13.291v.077c0 2.325.504 4.236 1.499 5.72.994 1.484 2.462 2.233 4.389 2.233s2.753-.397 3.763-1.193c1.009-.795 1.652-1.82 1.912-3.074h1.667l.015-.015ZM186.938 8.58c-1.453 0-2.616.52-3.503 1.56s-1.392 2.63-1.514 4.772h10.018c-.045-2.065-.474-3.64-1.3-4.726-.826-1.086-2.049-1.622-3.686-1.622l-.015.016ZM200 9.147c0 1.024-.826 1.85-1.851 1.85a1.86 1.86 0 0 1-1.866-1.85c0-1.025.826-1.866 1.866-1.866A1.85 1.85 0 0 1 200 9.147Zm-.367 0c0-.857-.658-1.53-1.484-1.53s-1.499.673-1.499 1.53c0 .856.658 1.514 1.499 1.514.841 0 1.484-.673 1.484-1.514Zm-.688-.352c0 .29-.215.504-.582.535l.582.704h-.352l-.566-.704h-.245v.704h-.306v-1.79h.78c.429 0 .673.214.673.55h.016Zm-1.148.275h.475c.229 0 .382-.092.382-.29 0-.2-.153-.291-.382-.291h-.475v.581Z"/>
  </g>
  <defs>
    <clipPath id="a">
      <path fill="#fff" d="M0 0h320v33H0z"/>
    </clipPath>
  </defs>
</svg>
