<svg xmlns="http://www.w3.org/2000/svg" width="465" height="47" fill="none" viewBox="0 0 465 47">
  <path fill="#fff" fill-opacity=".7" d="M458.888 19.97c-.736 0-1.362.171-1.879.515a4.569 4.569 0 0 0-1.252 1.303 6.536 6.536 0 0 0-.746 1.697 9.585 9.585 0 0 0-.298 1.727l1.909.06a65.816 65.816 0 0 0 3.965 0l1.968-.06c0-.545-.05-1.121-.149-1.727a4.972 4.972 0 0 0-.537-1.697 3.467 3.467 0 0 0-1.103-1.303c-.477-.344-1.103-.515-1.878-.515Zm-6.888 7c0-2.485.576-4.435 1.729-5.849 1.173-1.414 2.873-2.121 5.099-2.121 1.053 0 1.958.172 2.713.515.776.323 1.422.768 1.938 1.334a4.969 4.969 0 0 1 1.133 1.939 7.26 7.26 0 0 1 .358 3c0 .182-.01.374-.03.576l-3.19-.061c-1.054-.02-2.117-.03-3.19-.03-.656 0-1.312.01-1.968.03l-1.938.06c-.02.102-.03.253-.03.455v.394c0 .788.109 1.525.328 2.212a5.387 5.387 0 0 0 1.014 1.788c.437.485.974.879 1.61 1.182.636.283 1.371.424 2.206.424.398 0 .805-.05 1.223-.151a8.898 8.898 0 0 0 1.222-.455 6.828 6.828 0 0 0 1.103-.697 5.45 5.45 0 0 0 .925-.848l.149.09-.179 1.485c-.597.485-1.342.9-2.236 1.243a7.44 7.44 0 0 1-2.744.515c-1.073 0-2.057-.162-2.951-.485a6.981 6.981 0 0 1-2.296-1.454 7.016 7.016 0 0 1-1.491-2.273A7.705 7.705 0 0 1 452 26.97Zm-5.51-1.66c0-1.547-.311-2.712-.933-3.496-.622-.804-1.48-1.206-2.574-1.206-1.502 0-2.607.444-3.315 1.33-.686.887-1.029 2.134-1.029 3.742v2.63c0 .927.01 1.907.032 2.937a32.19 32.19 0 0 0 .225 2.753 17.394 17.394 0 0 0-1.448-.062c-.472 0-.955.02-1.448.062.107-.825.172-1.742.193-2.753.043-1.03.064-2.01.064-2.938v-3.216c0-.928-.021-1.897-.064-2.907a28.995 28.995 0 0 0-.193-2.877c.601.103 1.083.155 1.448.155.172 0 .354-.01.547-.031.215-.041.461-.082.74-.124-.064.825-.096 1.65-.096 2.474h.064c.601-.886 1.319-1.567 2.156-2.04.837-.496 1.834-.743 2.993-.743.6 0 1.201.082 1.801.247.623.165 1.18.454 1.674.866.493.392.89.939 1.19 1.64.322.68.483 1.556.483 2.628 0 .887-.021 1.805-.064 2.753a64.282 64.282 0 0 0-.065 2.97v3c.022.308.043.607.065.896a14.16 14.16 0 0 0-2.671 0c.043-1.072.086-2.175.129-3.31a61.98 61.98 0 0 0 .096-3.494v-1.887Zm-13.893-3.465c-.096-.123-.288-.237-.576-.34a2.318 2.318 0 0 0-.836-.154 2.3 2.3 0 0 0-1.239.34 2.915 2.915 0 0 0-.921.928c-.25.37-.442.824-.576 1.36a6.575 6.575 0 0 0-.202 1.67v6.588c.019.722.058 1.31.115 1.763A11.345 11.345 0 0 0 426 34c.058-.701.086-1.65.086-2.845.02-1.217.029-2.701.029-4.454v-.99c0-.804-.009-1.732-.029-2.783 0-1.052-.028-2.258-.086-3.619.211.041.413.083.605.124.192.02.394.03.605.03.173 0 .355-.01.547-.03.192-.041.394-.082.605-.124a31.4 31.4 0 0 0-.144 1.763v1.237l.058.031c1.133-2.227 2.4-3.34 3.802-3.34.173 0 .317.01.432.03.135.021.298.073.49.156-.096.247-.154.628-.173 1.144-.019.495-.029.948-.029 1.36l-.201.155Zm-16.18-1.875c-.792 0-1.466.171-2.023.515a4.742 4.742 0 0 0-1.348 1.303 6.3 6.3 0 0 0-.803 1.697 8.976 8.976 0 0 0-.321 1.727l2.055.06a76.43 76.43 0 0 0 4.271 0l2.119-.06a9.95 9.95 0 0 0-.161-1.727 4.71 4.71 0 0 0-.578-1.697 3.546 3.546 0 0 0-1.188-1.303c-.513-.344-1.188-.515-2.023-.515Zm-7.417 7c0-2.485.621-4.435 1.862-5.849 1.263-1.414 3.094-2.121 5.491-2.121 1.135 0 2.109.172 2.922.515.835.323 1.531.768 2.087 1.334a4.91 4.91 0 0 1 1.221 1.939 6.812 6.812 0 0 1 .385 3c0 .182-.011.374-.032.576l-3.436-.061c-1.135-.02-2.28-.03-3.436-.03-.706 0-1.413.01-2.119.03l-2.087.06a2.326 2.326 0 0 0-.032.455v.394c0 .788.117 1.525.353 2.212a5.324 5.324 0 0 0 1.092 1.788 5.467 5.467 0 0 0 1.734 1.182c.685.283 1.477.424 2.376.424.428 0 .867-.05 1.316-.151.45-.122.889-.273 1.317-.455a7.484 7.484 0 0 0 1.188-.697c.385-.262.717-.545.995-.848l.161.09-.193 1.485c-.642.485-1.445.9-2.408 1.243a8.557 8.557 0 0 1-2.954.515c-1.156 0-2.216-.162-3.179-.485a7.627 7.627 0 0 1-2.473-1.454 6.984 6.984 0 0 1-1.605-2.273A7.218 7.218 0 0 1 409 26.97Zm-13.304-.105c0 1.204.122 2.198.367 2.98.266.783.593 1.416.981 1.897.408.462.868.783 1.378.963a4.477 4.477 0 0 0 1.501.271c.797 0 1.481-.19 2.053-.572a4.874 4.874 0 0 0 1.409-1.535 6.754 6.754 0 0 0 .827-2.167 10.75 10.75 0 0 0 .276-2.409c0-1.927-.378-3.392-1.134-4.395-.755-1.024-1.868-1.535-3.339-1.535-.735 0-1.378.17-1.93.511-.531.322-.98.783-1.348 1.385-.347.582-.612 1.275-.796 2.077a12.396 12.396 0 0 0-.245 2.53Zm8.7 3.974a7.31 7.31 0 0 1-.674 1.054 4.99 4.99 0 0 1-1.041 1.023 5.088 5.088 0 0 1-1.471.783c-.572.2-1.236.301-1.991.301a7 7 0 0 1-2.298-.391 5.395 5.395 0 0 1-1.991-1.265c-.572-.602-1.042-1.364-1.409-2.288-.347-.943-.521-2.067-.521-3.372 0-1.284.194-2.398.582-3.341.388-.943.888-1.726 1.501-2.348a6.006 6.006 0 0 1 2.114-1.415 6.346 6.346 0 0 1 2.389-.482c2.267 0 3.84 1.004 4.718 3.01h.061v-2.95c0-.762-.01-1.525-.03-2.288 0-.782-.01-1.525-.031-2.227a62 62 0 0 0-.03-1.987c0-.622-.011-1.174-.031-1.656.245.04.48.08.705.12.224.02.449.03.673.03.225 0 .44-.01.644-.03.224-.04.469-.08.735-.12a49.451 49.451 0 0 0-.153 2.8 666.133 666.133 0 0 0-.123 4.004l-.061 4.515c-.02 1.546-.031 2.96-.031 4.245 0 1.385.011 2.63.031 3.733l.061 3.402c-.408-.04-.806-.06-1.194-.06-.368 0-.756.02-1.165.06l.092-2.86h-.061Zm-26.68-4.293c0 .848.072 1.666.216 2.454a6.9 6.9 0 0 0 .803 2.121 4.22 4.22 0 0 0 1.481 1.455c.617.363 1.379.545 2.284.545.905 0 1.667-.182 2.284-.545a4.216 4.216 0 0 0 1.481-1.455 6.37 6.37 0 0 0 .772-2.121c.165-.788.247-1.606.247-2.454 0-.849-.082-1.667-.247-2.455-.144-.788-.401-1.485-.772-2.091a4.135 4.135 0 0 0-1.481-1.485c-.617-.364-1.379-.545-2.284-.545-.905 0-1.667.181-2.284.545A4.135 4.135 0 0 0 378.735 22c-.371.606-.638 1.303-.803 2.09a13.63 13.63 0 0 0-.216 2.456Zm-2.716 0c0-1.374.216-2.536.648-3.485.453-.97 1.039-1.748 1.759-2.334a6.646 6.646 0 0 1 2.408-1.303A8.966 8.966 0 0 1 382.5 19c.905 0 1.8.141 2.685.424a6.646 6.646 0 0 1 2.408 1.303c.72.586 1.296 1.364 1.728 2.334.453.95.679 2.11.679 3.485 0 1.373-.226 2.545-.679 3.515-.432.95-1.008 1.727-1.728 2.333-.721.586-1.523 1-2.408 1.242A10.12 10.12 0 0 1 382.5 34c-.885 0-1.78-.121-2.685-.364a6.506 6.506 0 0 1-2.408-1.242c-.72-.606-1.306-1.384-1.759-2.333-.432-.97-.648-2.142-.648-3.515ZM352.45 12a339.765 339.765 0 0 0 4.207 8.674 807.898 807.898 0 0 0 4.479 8.643c.202-.398.495-.964.878-1.697.383-.754.827-1.613 1.332-2.577a313.87 313.87 0 0 0 1.604-3.112c.585-1.131 1.17-2.273 1.755-3.425.605-1.153 1.2-2.284 1.786-3.395.585-1.11 1.129-2.147 1.634-3.111h.393c.222 2.011.424 3.96.606 5.846a1859.728 1859.728 0 0 0 1.21 10.905c.202 1.76.424 3.51.666 5.249a4.248 4.248 0 0 0-.726-.063h-1.423c-.222 0-.454.021-.696.063-.222-2.787-.444-5.49-.666-8.109a240.74 240.74 0 0 0-.817-8.014h-.06a958.874 958.874 0 0 0-4.116 7.889 125.52 125.52 0 0 0-3.814 8.171h-.272a236.282 236.282 0 0 0-3.814-7.92 980.747 980.747 0 0 1-3.964-8.14h-.061a415.332 415.332 0 0 1-.484 4.243 382.366 382.366 0 0 0-.454 4.494c-.141 1.467-.262 2.86-.363 4.18a42.85 42.85 0 0 0-.151 3.206 8.266 8.266 0 0 0-1.06-.063c-.383 0-.736.021-1.059.063.262-1.697.535-3.489.817-5.374.283-1.886.555-3.782.817-5.689.263-1.907.505-3.782.727-5.626.222-1.864.413-3.635.575-5.311h.514Zm-22.31 21.835c-.225-.561-.522-1.288-.89-2.182-.348-.893-.727-1.828-1.136-2.805-.409-.997-.829-2.005-1.259-3.023-.43-1.039-.839-2.005-1.228-2.898A208.66 208.66 0 0 0 324 19c.266.042.512.083.737.125a7.364 7.364 0 0 0 1.351 0c.225-.042.47-.083.737-.125a88.15 88.15 0 0 0 2.118 5.921 488.688 488.688 0 0 0 2.456 6.047 78.208 78.208 0 0 0 2.456-5.86A94.442 94.442 0 0 0 335.974 19c.409.104.747.156 1.013.156.266 0 .604-.052 1.013-.156-.143.29-.379.79-.706 1.496-.307.686-.686 1.517-1.136 2.493l-1.443 3.21c-.512 1.164-1.044 2.369-1.597 3.615l-1.596 3.678a184.068 184.068 0 0 0-1.474 3.428c-.45 1.101-.849 2.088-1.197 2.96-.328.894-.573 1.6-.737 2.12a4.357 4.357 0 0 0-1.044-.156c-.286 0-.634.052-1.044.156a63.482 63.482 0 0 0 4.114-8.165Zm-9.836-7.753c0-.923-.122-1.736-.367-2.438-.225-.722-.531-1.325-.92-1.806a3.546 3.546 0 0 0-1.317-1.084 3.218 3.218 0 0 0-1.532-.391 4.84 4.84 0 0 0-1.838.36c-.571.222-1.072.603-1.501 1.145-.429.522-.776 1.214-1.041 2.077-.245.843-.368 1.887-.368 3.13 0 4.035 1.491 6.052 4.473 6.052.633 0 1.215-.16 1.746-.482.531-.34.99-.823 1.378-1.445.409-.622.726-1.364.95-2.227.225-.863.337-1.827.337-2.89Zm2.696.09c0 1.165-.184 2.229-.551 3.192a7.483 7.483 0 0 1-1.471 2.499 6.449 6.449 0 0 1-2.206 1.595 6.806 6.806 0 0 1-2.726.542c-.98 0-1.869-.2-2.665-.602-.776-.422-1.369-.923-1.777-1.505a36.997 36.997 0 0 0-2.053 1.746H309c.041-.482.071-1.064.092-1.746.041-.683.071-1.405.092-2.168.02-.783.03-1.575.03-2.378.021-.803.031-1.546.031-2.228V19.67c0-.682-.01-1.425-.031-2.228 0-.802-.01-1.595-.03-2.378a71.082 71.082 0 0 0-.092-2.228A36.041 36.041 0 0 0 309 11c.572.1 1.031.15 1.379.15.224 0 .459-.01.704-.03.245-.04.511-.08.797-.12-.062.401-.113 1.044-.154 1.927-.04.863-.071 1.836-.091 2.92-.021 1.063-.041 2.167-.062 3.311-.02 1.124-.041 2.148-.061 3.071h.061c.695-1.084 1.461-1.877 2.298-2.378.837-.502 1.807-.753 2.91-.753 1.062 0 1.981.2 2.757.602.776.382 1.42.893 1.93 1.536a6.378 6.378 0 0 1 1.134 2.257 8.89 8.89 0 0 1 .398 2.68ZM18.005 37.654c-2.524 0-4.892-.447-7.104-1.361-2.211-.892-4.11-2.164-5.696-3.815-1.586-1.65-2.86-3.636-3.798-5.978C.47 24.158 0 21.57 0 18.738c0-2.833.47-5.532 1.43-7.875.96-2.342 2.256-4.305 3.887-5.889a16.907 16.907 0 0 1 5.718-3.68C13.225.424 15.548 0 18.005 0s4.736.424 6.925 1.294c2.19.87 4.11 2.097 5.741 3.68 1.654 1.584 2.95 3.57 3.91 5.89.96 2.341 1.43 4.951 1.43 7.874 0 2.922-.47 5.42-1.408 7.762-.938 2.342-2.212 4.328-3.82 5.978-1.608 1.651-3.53 2.923-5.719 3.815a18.673 18.673 0 0 1-7.059 1.36Zm0-2.187c2.055 0 3.887-.401 5.495-1.204a11.672 11.672 0 0 0 4.089-3.368c1.117-1.45 1.965-3.213 2.546-5.265.581-2.052.894-4.35.894-6.892 0-5.086-1.162-9.124-3.485-12.113-2.323-2.989-5.495-4.461-9.517-4.461-4.02 0-7.237 1.494-9.538 4.461-2.301 2.99-3.463 7.004-3.463 12.113 0 5.108.29 4.818.85 6.892.58 2.052 1.406 3.815 2.523 5.265 1.117 1.45 2.48 2.587 4.089 3.368 1.608.803 3.462 1.205 5.54 1.205h-.023Zm35.273 2.187c-2.189 0-4.043-.514-5.54-1.562-1.519-1.048-2.636-2.275-3.417-3.748V47h-4.066V11.109h3.954v4.996c.737-1.561 1.854-2.877 3.373-3.948 1.519-1.07 3.44-1.606 5.719-1.606 2.278 0 3.217.29 4.624.892a9.964 9.964 0 0 1 3.686 2.588c1.05 1.137 1.854 2.543 2.435 4.216.58 1.673.893 3.569.893 5.71 0 2.142-.313 4.127-.916 5.845-.603 1.717-1.43 3.145-2.48 4.305-1.05 1.16-2.278 2.052-3.73 2.654a11.75 11.75 0 0 1-4.602.915l.067-.023Zm-.782-2.187c2.592 0 4.58-1.026 5.898-3.1 1.34-2.052 2.01-4.885 2.01-8.454 0-3.57-.67-6.202-2.032-8.21-1.363-2.007-3.306-3.01-5.876-3.01-2.568 0-4.378 1.048-5.964 3.122-1.586 2.075-2.368 4.774-2.368 8.098 0 3.323.804 6.245 2.413 8.365 1.608 2.119 3.574 3.167 5.897 3.167l.023.023Zm39.809-6.178c-.492 2.565-1.72 4.595-3.731 6.112-1.988 1.516-4.468 2.252-7.417 2.252-2.948 0-3.484-.312-5.048-.936a11.686 11.686 0 0 1-4.066-2.7c-1.14-1.182-2.033-2.61-2.68-4.305-.648-1.695-.961-3.613-.961-5.777s.335-4.06 1.005-5.733c.67-1.673 1.586-3.078 2.703-4.216a11.61 11.61 0 0 1 3.842-2.565c1.43-.58 2.904-.892 4.401-.892 1.497 0 3.128.267 4.58.803 1.452.535 2.747 1.316 3.842 2.364 1.117 1.049 1.988 2.342 2.636 3.904.648 1.561.96 3.368.96 5.398v.825H72.96v.112c0 3.39.737 6.179 2.19 8.343 1.451 2.163 3.596 3.256 6.41 3.256 2.815 0 4.022-.58 5.496-1.74 1.474-1.16 2.412-2.654 2.792-4.483h2.435l.023-.022Zm-11.93-16.775c-2.122 0-3.82.758-5.115 2.275-1.296 1.517-2.033 3.837-2.212 6.96H87.68c-.067-3.011-.692-5.309-1.898-6.893-1.207-1.584-2.994-2.364-5.384-2.364l-.022.022Zm21.111 12.514v12.113H97.42V11.109h3.954v5.353c.648-1.695 1.742-3.1 3.217-4.238 1.497-1.115 3.284-1.695 5.361-1.695 2.078 0 4.803.78 6.635 2.32 1.832 1.539 2.725 4.26 2.725 8.186v16.106h-4.065V20.723c0-2.9-.559-4.975-1.698-6.18-1.117-1.204-2.569-1.828-4.356-1.828s-3.977 1.048-5.496 3.145c-1.519 2.097-2.256 5.153-2.256 9.168h.045Zm35.117-4.461h-7.015V37.14h-4.311V.758h11.348c4.848 0 8.489.826 10.924 2.499 2.435 1.673 3.641 4.082 3.641 7.272 0 3.19-.245 2.431-.737 3.48a8.43 8.43 0 0 1-1.944 2.676 10.568 10.568 0 0 1-2.881 1.83c-1.117.468-2.279.78-3.53.914v.112c1.832.2 3.44.914 4.803 2.141 1.362 1.205 2.39 3.145 3.037 5.822l2.391 9.659h-4.467l-2.346-9.815c-.67-2.766-1.743-4.595-3.284-5.465-1.519-.87-3.395-1.294-5.629-1.294v-.022Zm-7.015-17.511v15.213h6.925c3.597 0 6.166-.736 7.707-2.186 1.519-1.45 2.279-3.279 2.279-5.465s-.737-4.038-2.212-5.465c-1.474-1.428-4.043-2.142-7.729-2.142h-6.97v.045Zm49.324 26.233c-.491 2.565-1.719 4.595-3.73 6.112-1.988 1.516-4.468 2.252-7.416 2.252-2.949 0-3.485-.312-5.049-.936a11.709 11.709 0 0 1-4.067-2.7c-1.139-1.182-2.031-2.61-2.68-4.305-.647-1.695-.961-3.613-.961-5.777s.336-4.06 1.007-5.733c.67-1.673 1.586-3.078 2.702-4.216a11.607 11.607 0 0 1 3.842-2.565c1.43-.58 2.905-.892 4.401-.892 1.497 0 3.128.267 4.58.803 1.452.535 2.747 1.316 3.843 2.364 1.115 1.049 1.987 2.342 2.634 3.904.649 1.561.961 3.368.961 5.398v.825h-19.411v.112c0 3.39.736 6.179 2.189 8.343 1.452 2.163 3.596 3.256 6.41 3.256 2.815 0 4.021-.58 5.496-1.74 1.474-1.16 2.413-2.654 2.793-4.483h2.434l.022-.022Zm-11.928-16.775c-2.122 0-3.821.758-5.116 2.275-1.296 1.517-2.033 3.837-2.211 6.96h14.631c-.067-3.011-.692-5.309-1.898-6.893-1.207-1.584-2.995-2.364-5.384-2.364l-.022.022Zm39.227 24.627-7.282-20.88-6.859 20.88h-3.06l-9.159-26.032h4.221l7.328 20.879 6.813-20.88h3.061l7.328 20.991 6.813-20.99h2.502l-8.646 26.032h-3.06Zm19.077-15.08v15.057h-4.066V11.086h3.955v5.198a7.36 7.36 0 0 1 .536-1.316c.224-.424.491-.848.803-1.227.738-.892 1.587-1.584 2.548-2.052.961-.469 2.055-.692 3.283-.692 1.23 0 .492 0 .737.023.246 0 .469.044.671.066v3.48c-.358-.044-.738-.067-1.161-.134a13.397 13.397 0 0 0-1.386-.067c-.737 0-1.43.112-2.123.335-.692.223-1.317.625-1.898 1.205-.582.58-1.027 1.36-1.385 2.364-.358 1.004-.514 2.275-.514 3.792Zm11.683-16.93V.513h4.468v4.618h-4.468Zm.201 32.01V11.109h4.066V37.14h-4.066Zm18.453.044c-2.123 0-3.687-.401-4.714-1.204-1.028-.804-1.542-2.387-1.542-4.774V13.183h-4.735V11.11h4.735V6.335l3.91-2.744h.156v7.54h7.082v2.075h-7.082v18.09c0 1.517.246 2.543.738 3.056.491.513 1.406.78 2.747.78h3.597v1.986c-.559.045-1.251.067-2.056.067-.825 0-1.764.022-2.836.022v-.022Zm29.308-7.896c-.491 2.565-1.719 4.595-3.73 6.112-1.988 1.516-4.468 2.252-7.417 2.252s-3.485-.312-5.049-.936a11.692 11.692 0 0 1-4.065-2.7c-1.14-1.182-2.033-2.61-2.681-4.305-.647-1.695-.961-3.613-.961-5.777s.336-4.06 1.006-5.733c.671-1.673 1.586-3.078 2.702-4.216a11.61 11.61 0 0 1 3.843-2.565c1.43-.58 2.905-.892 4.4-.892 1.497 0 3.129.267 4.581.803 1.451.535 2.747 1.316 3.842 2.364 1.116 1.049 1.988 2.342 2.635 3.904.648 1.561.961 3.368.961 5.398v.825h-19.412v.112c0 3.39.736 6.179 2.19 8.343 1.451 2.163 3.595 3.256 6.41 3.256 2.814 0 4.021-.58 5.496-1.74 1.473-1.16 2.412-2.654 2.792-4.483h2.435l.022-.022Zm-11.906-16.775c-2.122 0-3.821.758-5.117 2.275-1.295 1.517-2.033 3.837-2.211 6.96h14.632c-.066-3.011-.693-5.309-1.899-6.893-1.206-1.584-2.993-2.364-5.383-2.364l-.022.022ZM292 13.51c0 1.379-1.333 2.49-2.988 2.49-1.654 0-3.012-1.111-3.012-2.49 0-1.378 1.333-2.51 3.012-2.51S292 12.132 292 13.51Zm-.592 0c0-1.152-1.063-2.057-2.396-2.057s-2.42.905-2.42 2.057c0 1.153 1.063 2.037 2.42 2.037 1.358 0 2.396-.905 2.396-2.037Zm-1.111-.473c0 .39-.347.679-.939.72l.939.947h-.568l-.914-.947h-.395v.947h-.494v-2.408h1.259c.692 0 1.086.288 1.086.741h.026Zm-1.853.37h.767c.369 0 .616-.123.616-.39 0-.268-.247-.391-.616-.391h-.767v.781Z"/>
</svg>
