<svg width="4018px" height="480px"
 viewBox="0.00 0.00 4017.67 479.60" xmlns="http://www.w3.org/2000/svg" xmlns:xlink="http://www.w3.org/1999/xlink">
<g id="graph0" class="graph" transform="scale(1.0 1.0) rotate(0.0) translate(4.0 475.6)">
<title>resolution</title>
<polygon fill="white" stroke="transparent" points="-4,4 -4,-475.6 4013.67,-475.6 4013.67,4 -4,4"/>
<!-- org.springframework.cloud\nspring&#45;cloud&#45;dependencies&#45;parent\n3.1.0\n -->
<g id="node1" class="node">
<title>org.springframework.cloud\nspring&#45;cloud&#45;dependencies&#45;parent\n3.1.0\n</title>
<g id="a_node1"><a target="_blank" xlink:href="https://repo1.maven.org/maven2/org/springframework/cloud/spring-cloud-dependencies-parent/3.1.0/spring-cloud-dependencies-parent-3.1.0.pom" xlink:title="org.springframework.cloud\nspring&#45;cloud&#45;dependencies&#45;parent\n3.1.0\n">
<polygon fill="#deefee" stroke="#deefee" points="2020.08,-154 1813.14,-154 1813.14,-95.2 2020.08,-95.2 2020.08,-154"/>
<text text-anchor="middle" x="1916.61" y="-137.2" font-size="14.00">org.springframework.cloud</text>
<text text-anchor="middle" x="1916.61" y="-120.4" font-size="14.00">spring&#45;cloud&#45;dependencies&#45;parent</text>
<text text-anchor="middle" x="1916.61" y="-103.6" font-size="14.00">3.1.0</text>
</a>
</g>
</g>
<!-- org.springframework.cloud\nspring&#45;cloud&#45;commons&#45;dependencies\n3.1.0\n -->
<g id="node2" class="node">
<title>org.springframework.cloud\nspring&#45;cloud&#45;commons&#45;dependencies\n3.1.0\n</title>
<g id="a_node2"><a target="_blank" xlink:href="https://repo1.maven.org/maven2/org/springframework/cloud/spring-cloud-commons-dependencies/3.1.0/spring-cloud-commons-dependencies-3.1.0.pom" xlink:title="org.springframework.cloud\nspring&#45;cloud&#45;commons&#45;dependencies\n3.1.0\n">
<polygon fill="#e6eaff" stroke="#e6eaff" points="3074.54,-265.2 2848.68,-265.2 2848.68,-206.4 3074.54,-206.4 3074.54,-265.2"/>
<text text-anchor="middle" x="2961.61" y="-248.4" font-size="14.00">org.springframework.cloud</text>
<text text-anchor="middle" x="2961.61" y="-231.6" font-size="14.00">spring&#45;cloud&#45;commons&#45;dependencies</text>
<text text-anchor="middle" x="2961.61" y="-214.8" font-size="14.00">3.1.0</text>
</a>
</g>
</g>
<!-- org.springframework.cloud\nspring&#45;cloud&#45;commons&#45;dependencies\n3.1.0\n&#45;&gt;org.springframework.cloud\nspring&#45;cloud&#45;dependencies&#45;parent\n3.1.0\n -->
<g id="edge1" class="edge">
<title>org.springframework.cloud\nspring&#45;cloud&#45;commons&#45;dependencies\n3.1.0\n&#45;&gt;org.springframework.cloud\nspring&#45;cloud&#45;dependencies&#45;parent\n3.1.0\n</title>
<path fill="none" stroke="black" stroke-dasharray="5,2" d="M2848.39,-208.09C2845.44,-207.56 2842.51,-207.07 2839.61,-206.6 2550.2,-159.9 2205.08,-138.64 2030.24,-130.27"/>
<polygon fill="black" stroke="black" points="2030.15,-126.76 2019.99,-129.78 2029.82,-133.75 2030.15,-126.76"/>
<text text-anchor="middle" x="2732.1" y="-176" font-size="14.00">parent</text>
</g>
<!-- org.springframework.cloud\nspring&#45;cloud&#45;dependencies\n2021.0.0\n -->
<g id="node3" class="node">
<title>org.springframework.cloud\nspring&#45;cloud&#45;dependencies\n2021.0.0\n</title>
<g id="a_node3"><a target="_blank" xlink:href="https://repo1.maven.org/maven2/org/springframework/cloud/spring-cloud-dependencies/2021.0.0/spring-cloud-dependencies-2021.0.0.pom" xlink:title="org.springframework.cloud\nspring&#45;cloud&#45;dependencies\n2021.0.0\n">
<polygon fill="#e6eaff" stroke="#e6eaff" points="1949.28,-376.4 1779.94,-376.4 1779.94,-317.6 1949.28,-317.6 1949.28,-376.4"/>
<text text-anchor="middle" x="1864.61" y="-359.6" font-size="14.00">org.springframework.cloud</text>
<text text-anchor="middle" x="1864.61" y="-342.8" font-size="14.00">spring&#45;cloud&#45;dependencies</text>
<text text-anchor="middle" x="1864.61" y="-326" font-size="14.00">2021.0.0</text>
</a>
</g>
</g>
<!-- org.springframework.cloud\nspring&#45;cloud&#45;dependencies\n2021.0.0\n&#45;&gt;org.springframework.cloud\nspring&#45;cloud&#45;dependencies&#45;parent\n3.1.0\n -->
<g id="edge19" class="edge">
<title>org.springframework.cloud\nspring&#45;cloud&#45;dependencies\n2021.0.0\n&#45;&gt;org.springframework.cloud\nspring&#45;cloud&#45;dependencies&#45;parent\n3.1.0\n</title>
<path fill="none" stroke="black" stroke-dasharray="5,2" d="M1779.89,-340.92C1619.83,-330.45 1285.91,-304.13 1251.61,-265 1234.5,-245.48 1234.4,-226.03 1251.61,-206.6 1287.48,-166.09 1622.65,-141.67 1802.99,-131.36"/>
<polygon fill="black" stroke="black" points="1803.26,-134.85 1813.05,-130.79 1802.87,-127.86 1803.26,-134.85"/>
</g>
<!-- org.springframework.cloud\nspring&#45;cloud&#45;dependencies\n2021.0.0\n&#45;&gt;org.springframework.cloud\nspring&#45;cloud&#45;commons&#45;dependencies\n3.1.0\n -->
<g id="edge2" class="edge">
<title>org.springframework.cloud\nspring&#45;cloud&#45;dependencies\n2021.0.0\n&#45;&gt;org.springframework.cloud\nspring&#45;cloud&#45;commons&#45;dependencies\n3.1.0\n</title>
<path fill="none" stroke="black" d="M1949.25,-343.28C2117.3,-336.93 2504.91,-317.62 2838.06,-265.17"/>
<polygon fill="black" stroke="black" points="2839.06,-268.55 2848.39,-263.53 2837.97,-261.64 2839.06,-268.55"/>
<text text-anchor="middle" x="2741.04" y="-287.2" font-size="14.00">dependency</text>
</g>
<!-- org.springframework.cloud\nspring&#45;cloud&#45;netflix&#45;dependencies\n3.1.0\n -->
<g id="node4" class="node">
<title>org.springframework.cloud\nspring&#45;cloud&#45;netflix&#45;dependencies\n3.1.0\n</title>
<g id="a_node4"><a target="_blank" xlink:href="https://repo1.maven.org/maven2/org/springframework/cloud/spring-cloud-netflix-dependencies/3.1.0/spring-cloud-netflix-dependencies-3.1.0.pom" xlink:title="org.springframework.cloud\nspring&#45;cloud&#45;netflix&#45;dependencies\n3.1.0\n">
<polygon fill="#e6eaff" stroke="#e6eaff" points="1680.65,-265.2 1472.57,-265.2 1472.57,-206.4 1680.65,-206.4 1680.65,-265.2"/>
<text text-anchor="middle" x="1576.61" y="-248.4" font-size="14.00">org.springframework.cloud</text>
<text text-anchor="middle" x="1576.61" y="-231.6" font-size="14.00">spring&#45;cloud&#45;netflix&#45;dependencies</text>
<text text-anchor="middle" x="1576.61" y="-214.8" font-size="14.00">3.1.0</text>
</a>
</g>
</g>
<!-- org.springframework.cloud\nspring&#45;cloud&#45;dependencies\n2021.0.0\n&#45;&gt;org.springframework.cloud\nspring&#45;cloud&#45;netflix&#45;dependencies\n3.1.0\n -->
<g id="edge3" class="edge">
<title>org.springframework.cloud\nspring&#45;cloud&#45;dependencies\n2021.0.0\n&#45;&gt;org.springframework.cloud\nspring&#45;cloud&#45;netflix&#45;dependencies\n3.1.0\n</title>
<path fill="none" stroke="black" d="M1790.07,-317.74C1750.48,-302.73 1701.69,-284.23 1660.75,-268.7"/>
<polygon fill="black" stroke="black" points="1661.93,-265.41 1651.34,-265.13 1659.45,-271.95 1661.93,-265.41"/>
</g>
<!-- org.springframework.cloud\nspring&#45;cloud&#45;stream&#45;dependencies\n3.2.1\n -->
<g id="node5" class="node">
<title>org.springframework.cloud\nspring&#45;cloud&#45;stream&#45;dependencies\n3.2.1\n</title>
<g id="a_node5"><a target="_blank" xlink:href="https://repo1.maven.org/maven2/org/springframework/cloud/spring-cloud-stream-dependencies/3.2.1/spring-cloud-stream-dependencies-3.2.1.pom" xlink:title="org.springframework.cloud\nspring&#45;cloud&#45;stream&#45;dependencies\n3.2.1\n">
<polygon fill="#e6eaff" stroke="#e6eaff" points="1906.92,-265.2 1698.3,-265.2 1698.3,-206.4 1906.92,-206.4 1906.92,-265.2"/>
<text text-anchor="middle" x="1802.61" y="-248.4" font-size="14.00">org.springframework.cloud</text>
<text text-anchor="middle" x="1802.61" y="-231.6" font-size="14.00">spring&#45;cloud&#45;stream&#45;dependencies</text>
<text text-anchor="middle" x="1802.61" y="-214.8" font-size="14.00">3.2.1</text>
</a>
</g>
</g>
<!-- org.springframework.cloud\nspring&#45;cloud&#45;dependencies\n2021.0.0\n&#45;&gt;org.springframework.cloud\nspring&#45;cloud&#45;stream&#45;dependencies\n3.2.1\n -->
<g id="edge4" class="edge">
<title>org.springframework.cloud\nspring&#45;cloud&#45;dependencies\n2021.0.0\n&#45;&gt;org.springframework.cloud\nspring&#45;cloud&#45;stream&#45;dependencies\n3.2.1\n</title>
<path fill="none" stroke="black" d="M1848.48,-317.59C1840.95,-304.32 1831.88,-288.35 1823.8,-274.12"/>
<polygon fill="black" stroke="black" points="1826.64,-272.03 1818.66,-265.06 1820.55,-275.49 1826.64,-272.03"/>
</g>
<!-- org.springframework.cloud\nspring&#45;cloud&#45;task&#45;dependencies\n2.4.0\n -->
<g id="node6" class="node">
<title>org.springframework.cloud\nspring&#45;cloud&#45;task&#45;dependencies\n2.4.0\n</title>
<g id="a_node6"><a target="_blank" xlink:href="https://repo1.maven.org/maven2/org/springframework/cloud/spring-cloud-task-dependencies/2.4.0/spring-cloud-task-dependencies-2.4.0.pom" xlink:title="org.springframework.cloud\nspring&#45;cloud&#45;task&#45;dependencies\n2.4.0\n">
<polygon fill="#e6eaff" stroke="#e6eaff" points="1454.65,-265.2 1260.57,-265.2 1260.57,-206.4 1454.65,-206.4 1454.65,-265.2"/>
<text text-anchor="middle" x="1357.61" y="-248.4" font-size="14.00">org.springframework.cloud</text>
<text text-anchor="middle" x="1357.61" y="-231.6" font-size="14.00">spring&#45;cloud&#45;task&#45;dependencies</text>
<text text-anchor="middle" x="1357.61" y="-214.8" font-size="14.00">2.4.0</text>
</a>
</g>
</g>
<!-- org.springframework.cloud\nspring&#45;cloud&#45;dependencies\n2021.0.0\n&#45;&gt;org.springframework.cloud\nspring&#45;cloud&#45;task&#45;dependencies\n2.4.0\n -->
<g id="edge5" class="edge">
<title>org.springframework.cloud\nspring&#45;cloud&#45;dependencies\n2021.0.0\n&#45;&gt;org.springframework.cloud\nspring&#45;cloud&#45;task&#45;dependencies\n2.4.0\n</title>
<path fill="none" stroke="black" d="M1779.8,-330.42C1700.72,-315.53 1579.3,-291.78 1464.87,-265.25"/>
<polygon fill="black" stroke="black" points="1465.41,-261.78 1454.88,-262.92 1463.83,-268.6 1465.41,-261.78"/>
</g>
<!-- org.springframework.cloud\nspring&#45;cloud&#45;circuitbreaker&#45;dependencies\n2.1.0\n -->
<g id="node7" class="node">
<title>org.springframework.cloud\nspring&#45;cloud&#45;circuitbreaker&#45;dependencies\n2.1.0\n</title>
<g id="a_node7"><a target="_blank" xlink:href="https://repo1.maven.org/maven2/org/springframework/cloud/spring-cloud-circuitbreaker-dependencies/2.1.0/spring-cloud-circuitbreaker-dependencies-2.1.0.pom" xlink:title="org.springframework.cloud\nspring&#45;cloud&#45;circuitbreaker&#45;dependencies\n2.1.0\n">
<polygon fill="#e6eaff" stroke="#e6eaff" points="249.33,-265.2 -0.11,-265.2 -0.11,-206.4 249.33,-206.4 249.33,-265.2"/>
<text text-anchor="middle" x="124.61" y="-248.4" font-size="14.00">org.springframework.cloud</text>
<text text-anchor="middle" x="124.61" y="-231.6" font-size="14.00">spring&#45;cloud&#45;circuitbreaker&#45;dependencies</text>
<text text-anchor="middle" x="124.61" y="-214.8" font-size="14.00">2.1.0</text>
</a>
</g>
</g>
<!-- org.springframework.cloud\nspring&#45;cloud&#45;dependencies\n2021.0.0\n&#45;&gt;org.springframework.cloud\nspring&#45;cloud&#45;circuitbreaker&#45;dependencies\n2.1.0\n -->
<g id="edge6" class="edge">
<title>org.springframework.cloud\nspring&#45;cloud&#45;dependencies\n2021.0.0\n&#45;&gt;org.springframework.cloud\nspring&#45;cloud&#45;circuitbreaker&#45;dependencies\n2.1.0\n</title>
<path fill="none" stroke="black" d="M1779.72,-344.32C1580.83,-340.05 1069.26,-327.13 642.61,-299.8 474.42,-289.03 429.21,-290.53 259.51,-265.23"/>
<polygon fill="black" stroke="black" points="259.89,-261.75 249.48,-263.73 258.85,-268.67 259.89,-261.75"/>
</g>
<!-- org.springframework.cloud\nspring&#45;cloud&#45;config&#45;dependencies\n3.1.0\n -->
<g id="node9" class="node">
<title>org.springframework.cloud\nspring&#45;cloud&#45;config&#45;dependencies\n3.1.0\n</title>
<g id="a_node9"><a target="_blank" xlink:href="https://repo1.maven.org/maven2/org/springframework/cloud/spring-cloud-config-dependencies/3.1.0/spring-cloud-config-dependencies-3.1.0.pom" xlink:title="org.springframework.cloud\nspring&#45;cloud&#45;config&#45;dependencies\n3.1.0\n">
<polygon fill="#e6eaff" stroke="#e6eaff" points="2132.37,-265.2 1924.85,-265.2 1924.85,-206.4 2132.37,-206.4 2132.37,-265.2"/>
<text text-anchor="middle" x="2028.61" y="-248.4" font-size="14.00">org.springframework.cloud</text>
<text text-anchor="middle" x="2028.61" y="-231.6" font-size="14.00">spring&#45;cloud&#45;config&#45;dependencies</text>
<text text-anchor="middle" x="2028.61" y="-214.8" font-size="14.00">3.1.0</text>
</a>
</g>
</g>
<!-- org.springframework.cloud\nspring&#45;cloud&#45;dependencies\n2021.0.0\n&#45;&gt;org.springframework.cloud\nspring&#45;cloud&#45;config&#45;dependencies\n3.1.0\n -->
<g id="edge7" class="edge">
<title>org.springframework.cloud\nspring&#45;cloud&#45;dependencies\n2021.0.0\n&#45;&gt;org.springframework.cloud\nspring&#45;cloud&#45;config&#45;dependencies\n3.1.0\n</title>
<path fill="none" stroke="black" d="M1907.27,-317.59C1928.81,-303.25 1955.11,-285.74 1977.7,-270.7"/>
<polygon fill="black" stroke="black" points="1979.78,-273.52 1986.16,-265.06 1975.9,-267.69 1979.78,-273.52"/>
</g>
<!-- org.springframework.cloud\nspring&#45;cloud&#45;function&#45;dependencies\n3.2.1\n -->
<g id="node10" class="node">
<title>org.springframework.cloud\nspring&#45;cloud&#45;function&#45;dependencies\n3.2.1\n</title>
<g id="a_node10"><a target="_blank" xlink:href="https://repo1.maven.org/maven2/org/springframework/cloud/spring-cloud-function-dependencies/3.2.1/spring-cloud-function-dependencies-3.2.1.pom" xlink:title="org.springframework.cloud\nspring&#45;cloud&#45;function&#45;dependencies\n3.2.1\n">
<polygon fill="#e6eaff" stroke="#e6eaff" points="2604.76,-265.2 2386.46,-265.2 2386.46,-206.4 2604.76,-206.4 2604.76,-265.2"/>
<text text-anchor="middle" x="2495.61" y="-248.4" font-size="14.00">org.springframework.cloud</text>
<text text-anchor="middle" x="2495.61" y="-231.6" font-size="14.00">spring&#45;cloud&#45;function&#45;dependencies</text>
<text text-anchor="middle" x="2495.61" y="-214.8" font-size="14.00">3.2.1</text>
</a>
</g>
</g>
<!-- org.springframework.cloud\nspring&#45;cloud&#45;dependencies\n2021.0.0\n&#45;&gt;org.springframework.cloud\nspring&#45;cloud&#45;function&#45;dependencies\n3.2.1\n -->
<g id="edge8" class="edge">
<title>org.springframework.cloud\nspring&#45;cloud&#45;dependencies\n2021.0.0\n&#45;&gt;org.springframework.cloud\nspring&#45;cloud&#45;function&#45;dependencies\n3.2.1\n</title>
<path fill="none" stroke="black" d="M1949.39,-334.68C2049.21,-320.88 2220.15,-295.81 2376.13,-265.24"/>
<polygon fill="black" stroke="black" points="2377.25,-268.59 2386.38,-263.22 2375.9,-261.72 2377.25,-268.59"/>
</g>
<!-- org.springframework.cloud\nspring&#45;cloud&#45;gateway&#45;dependencies\n3.1.0\n -->
<g id="node11" class="node">
<title>org.springframework.cloud\nspring&#45;cloud&#45;gateway&#45;dependencies\n3.1.0\n</title>
<g id="a_node11"><a target="_blank" xlink:href="https://repo1.maven.org/maven2/org/springframework/cloud/spring-cloud-gateway-dependencies/3.1.0/spring-cloud-gateway-dependencies-3.1.0.pom" xlink:title="org.springframework.cloud\nspring&#45;cloud&#45;gateway&#45;dependencies\n3.1.0\n">
<polygon fill="#e6eaff" stroke="#e6eaff" points="2368.74,-265.2 2150.48,-265.2 2150.48,-206.4 2368.74,-206.4 2368.74,-265.2"/>
<text text-anchor="middle" x="2259.61" y="-248.4" font-size="14.00">org.springframework.cloud</text>
<text text-anchor="middle" x="2259.61" y="-231.6" font-size="14.00">spring&#45;cloud&#45;gateway&#45;dependencies</text>
<text text-anchor="middle" x="2259.61" y="-214.8" font-size="14.00">3.1.0</text>
</a>
</g>
</g>
<!-- org.springframework.cloud\nspring&#45;cloud&#45;dependencies\n2021.0.0\n&#45;&gt;org.springframework.cloud\nspring&#45;cloud&#45;gateway&#45;dependencies\n3.1.0\n -->
<g id="edge9" class="edge">
<title>org.springframework.cloud\nspring&#45;cloud&#45;dependencies\n2021.0.0\n&#45;&gt;org.springframework.cloud\nspring&#45;cloud&#45;gateway&#45;dependencies\n3.1.0\n</title>
<path fill="none" stroke="black" d="M1949.35,-322.57C2007.23,-306.57 2084.54,-285.2 2147.51,-267.79"/>
<polygon fill="black" stroke="black" points="2148.79,-271.07 2157.49,-265.03 2146.92,-264.32 2148.79,-271.07"/>
</g>
<!-- org.springframework.cloud\nspring&#45;cloud&#45;consul&#45;dependencies\n3.1.0\n -->
<g id="node12" class="node">
<title>org.springframework.cloud\nspring&#45;cloud&#45;consul&#45;dependencies\n3.1.0\n</title>
<g id="a_node12"><a target="_blank" xlink:href="https://repo1.maven.org/maven2/org/springframework/cloud/spring-cloud-consul-dependencies/3.1.0/spring-cloud-consul-dependencies-3.1.0.pom" xlink:title="org.springframework.cloud\nspring&#45;cloud&#45;consul&#45;dependencies\n3.1.0\n">
<polygon fill="#e6eaff" stroke="#e6eaff" points="2830.65,-265.2 2622.57,-265.2 2622.57,-206.4 2830.65,-206.4 2830.65,-265.2"/>
<text text-anchor="middle" x="2726.61" y="-248.4" font-size="14.00">org.springframework.cloud</text>
<text text-anchor="middle" x="2726.61" y="-231.6" font-size="14.00">spring&#45;cloud&#45;consul&#45;dependencies</text>
<text text-anchor="middle" x="2726.61" y="-214.8" font-size="14.00">3.1.0</text>
</a>
</g>
</g>
<!-- org.springframework.cloud\nspring&#45;cloud&#45;dependencies\n2021.0.0\n&#45;&gt;org.springframework.cloud\nspring&#45;cloud&#45;consul&#45;dependencies\n3.1.0\n -->
<g id="edge10" class="edge">
<title>org.springframework.cloud\nspring&#45;cloud&#45;dependencies\n2021.0.0\n&#45;&gt;org.springframework.cloud\nspring&#45;cloud&#45;consul&#45;dependencies\n3.1.0\n</title>
<path fill="none" stroke="black" d="M1949.39,-340.63C2086.87,-331.08 2366.95,-308.15 2612.18,-265.17"/>
<polygon fill="black" stroke="black" points="2613.12,-268.55 2622.36,-263.37 2611.9,-261.66 2613.12,-268.55"/>
</g>
<!-- org.springframework.cloud\nspring&#45;cloud&#45;sleuth&#45;dependencies\n3.1.0\n -->
<g id="node13" class="node">
<title>org.springframework.cloud\nspring&#45;cloud&#45;sleuth&#45;dependencies\n3.1.0\n</title>
<g id="a_node13"><a target="_blank" xlink:href="https://repo1.maven.org/maven2/org/springframework/cloud/spring-cloud-sleuth-dependencies/3.1.0/spring-cloud-sleuth-dependencies-3.1.0.pom" xlink:title="org.springframework.cloud\nspring&#45;cloud&#45;sleuth&#45;dependencies\n3.1.0\n">
<polygon fill="#e6eaff" stroke="#e6eaff" points="3297.04,-265.2 3092.18,-265.2 3092.18,-206.4 3297.04,-206.4 3297.04,-265.2"/>
<text text-anchor="middle" x="3194.61" y="-248.4" font-size="14.00">org.springframework.cloud</text>
<text text-anchor="middle" x="3194.61" y="-231.6" font-size="14.00">spring&#45;cloud&#45;sleuth&#45;dependencies</text>
<text text-anchor="middle" x="3194.61" y="-214.8" font-size="14.00">3.1.0</text>
</a>
</g>
</g>
<!-- org.springframework.cloud\nspring&#45;cloud&#45;dependencies\n2021.0.0\n&#45;&gt;org.springframework.cloud\nspring&#45;cloud&#45;sleuth&#45;dependencies\n3.1.0\n -->
<g id="edge11" class="edge">
<title>org.springframework.cloud\nspring&#45;cloud&#45;dependencies\n2021.0.0\n&#45;&gt;org.springframework.cloud\nspring&#45;cloud&#45;sleuth&#45;dependencies\n3.1.0\n</title>
<path fill="none" stroke="black" d="M1949.47,-343.5C2111.05,-338.34 2473.99,-324.85 2778.61,-299.8 2911.4,-288.88 2947.72,-289.55 3082.06,-265.21"/>
<polygon fill="black" stroke="black" points="3082.7,-268.65 3091.91,-263.41 3081.44,-261.76 3082.7,-268.65"/>
</g>
<!-- org.springframework.cloud\nspring&#45;cloud&#45;vault&#45;dependencies\n3.1.0\n -->
<g id="node16" class="node">
<title>org.springframework.cloud\nspring&#45;cloud&#45;vault&#45;dependencies\n3.1.0\n</title>
<g id="a_node16"><a target="_blank" xlink:href="https://repo1.maven.org/maven2/org/springframework/cloud/spring-cloud-vault-dependencies/3.1.0/spring-cloud-vault-dependencies-3.1.0.pom" xlink:title="org.springframework.cloud\nspring&#45;cloud&#45;vault&#45;dependencies\n3.1.0\n">
<polygon fill="#e6eaff" stroke="#e6eaff" points="3514.6,-265.2 3314.62,-265.2 3314.62,-206.4 3514.6,-206.4 3514.6,-265.2"/>
<text text-anchor="middle" x="3414.61" y="-248.4" font-size="14.00">org.springframework.cloud</text>
<text text-anchor="middle" x="3414.61" y="-231.6" font-size="14.00">spring&#45;cloud&#45;vault&#45;dependencies</text>
<text text-anchor="middle" x="3414.61" y="-214.8" font-size="14.00">3.1.0</text>
</a>
</g>
</g>
<!-- org.springframework.cloud\nspring&#45;cloud&#45;dependencies\n2021.0.0\n&#45;&gt;org.springframework.cloud\nspring&#45;cloud&#45;vault&#45;dependencies\n3.1.0\n -->
<g id="edge12" class="edge">
<title>org.springframework.cloud\nspring&#45;cloud&#45;dependencies\n2021.0.0\n&#45;&gt;org.springframework.cloud\nspring&#45;cloud&#45;vault&#45;dependencies\n3.1.0\n</title>
<path fill="none" stroke="black" d="M1949.46,-343.25C2124.68,-337.32 2539.2,-322.07 2886.61,-299.8 3069.81,-288.06 3119.64,-295.96 3304.61,-265.06"/>
<polygon fill="black" stroke="black" points="3305.39,-268.48 3314.67,-263.36 3304.23,-261.57 3305.39,-268.48"/>
</g>
<!-- org.springframework.cloud\nspring&#45;cloud&#45;zookeeper&#45;dependencies\n3.1.0\n -->
<g id="node17" class="node">
<title>org.springframework.cloud\nspring&#45;cloud&#45;zookeeper&#45;dependencies\n3.1.0\n</title>
<g id="a_node17"><a target="_blank" xlink:href="https://repo1.maven.org/maven2/org/springframework/cloud/spring-cloud-zookeeper-dependencies/3.1.0/spring-cloud-zookeeper-dependencies-3.1.0.pom" xlink:title="org.springframework.cloud\nspring&#45;cloud&#45;zookeeper&#45;dependencies\n3.1.0\n">
<polygon fill="#e6eaff" stroke="#e6eaff" points="496.12,-265.2 267.1,-265.2 267.1,-206.4 496.12,-206.4 496.12,-265.2"/>
<text text-anchor="middle" x="381.61" y="-248.4" font-size="14.00">org.springframework.cloud</text>
<text text-anchor="middle" x="381.61" y="-231.6" font-size="14.00">spring&#45;cloud&#45;zookeeper&#45;dependencies</text>
<text text-anchor="middle" x="381.61" y="-214.8" font-size="14.00">3.1.0</text>
</a>
</g>
</g>
<!-- org.springframework.cloud\nspring&#45;cloud&#45;dependencies\n2021.0.0\n&#45;&gt;org.springframework.cloud\nspring&#45;cloud&#45;zookeeper&#45;dependencies\n3.1.0\n -->
<g id="edge13" class="edge">
<title>org.springframework.cloud\nspring&#45;cloud&#45;dependencies\n2021.0.0\n&#45;&gt;org.springframework.cloud\nspring&#45;cloud&#45;zookeeper&#45;dependencies\n3.1.0\n</title>
<path fill="none" stroke="black" d="M1779.71,-342.91C1613.52,-336.62 1233.62,-321.12 914.61,-299.8 735.87,-287.85 687.61,-292.84 506.48,-265.05"/>
<polygon fill="black" stroke="black" points="506.77,-261.55 496.35,-263.48 505.7,-268.47 506.77,-261.55"/>
</g>
<!-- org.springframework.cloud\nspring&#45;cloud&#45;cloudfoundry&#45;dependencies\n3.1.0\n -->
<g id="node18" class="node">
<title>org.springframework.cloud\nspring&#45;cloud&#45;cloudfoundry&#45;dependencies\n3.1.0\n</title>
<g id="a_node18"><a target="_blank" xlink:href="https://repo1.maven.org/maven2/org/springframework/cloud/spring-cloud-cloudfoundry-dependencies/3.1.0/spring-cloud-cloudfoundry-dependencies-3.1.0.pom" xlink:title="org.springframework.cloud\nspring&#45;cloud&#45;cloudfoundry&#45;dependencies\n3.1.0\n">
<polygon fill="#e6eaff" stroke="#e6eaff" points="761.03,-265.2 514.19,-265.2 514.19,-206.4 761.03,-206.4 761.03,-265.2"/>
<text text-anchor="middle" x="637.61" y="-248.4" font-size="14.00">org.springframework.cloud</text>
<text text-anchor="middle" x="637.61" y="-231.6" font-size="14.00">spring&#45;cloud&#45;cloudfoundry&#45;dependencies</text>
<text text-anchor="middle" x="637.61" y="-214.8" font-size="14.00">3.1.0</text>
</a>
</g>
</g>
<!-- org.springframework.cloud\nspring&#45;cloud&#45;dependencies\n2021.0.0\n&#45;&gt;org.springframework.cloud\nspring&#45;cloud&#45;cloudfoundry&#45;dependencies\n3.1.0\n -->
<g id="edge14" class="edge">
<title>org.springframework.cloud\nspring&#45;cloud&#45;dependencies\n2021.0.0\n&#45;&gt;org.springframework.cloud\nspring&#45;cloud&#45;cloudfoundry&#45;dependencies\n3.1.0\n</title>
<path fill="none" stroke="black" d="M1779.92,-344.93C1596.94,-341.5 1151.25,-327.08 771.17,-265.03"/>
<polygon fill="black" stroke="black" points="771.51,-261.54 761.08,-263.37 770.37,-268.45 771.51,-261.54"/>
</g>
<!-- org.springframework.cloud\nspring&#45;cloud&#45;bus&#45;dependencies\n3.1.0\n -->
<g id="node19" class="node">
<title>org.springframework.cloud\nspring&#45;cloud&#45;bus&#45;dependencies\n3.1.0\n</title>
<g id="a_node19"><a target="_blank" xlink:href="https://repo1.maven.org/maven2/org/springframework/cloud/spring-cloud-bus-dependencies/3.1.0/spring-cloud-bus-dependencies-3.1.0.pom" xlink:title="org.springframework.cloud\nspring&#45;cloud&#45;bus&#45;dependencies\n3.1.0\n">
<polygon fill="#e6eaff" stroke="#e6eaff" points="970.04,-265.2 779.17,-265.2 779.17,-206.4 970.04,-206.4 970.04,-265.2"/>
<text text-anchor="middle" x="874.61" y="-248.4" font-size="14.00">org.springframework.cloud</text>
<text text-anchor="middle" x="874.61" y="-231.6" font-size="14.00">spring&#45;cloud&#45;bus&#45;dependencies</text>
<text text-anchor="middle" x="874.61" y="-214.8" font-size="14.00">3.1.0</text>
</a>
</g>
</g>
<!-- org.springframework.cloud\nspring&#45;cloud&#45;dependencies\n2021.0.0\n&#45;&gt;org.springframework.cloud\nspring&#45;cloud&#45;bus&#45;dependencies\n3.1.0\n -->
<g id="edge15" class="edge">
<title>org.springframework.cloud\nspring&#45;cloud&#45;dependencies\n2021.0.0\n&#45;&gt;org.springframework.cloud\nspring&#45;cloud&#45;bus&#45;dependencies\n3.1.0\n</title>
<path fill="none" stroke="black" d="M1779.9,-343.39C1649.17,-338.68 1390.55,-326.64 1172.61,-299.8 1089.23,-289.53 1066.3,-284.43 980.06,-265.05"/>
<polygon fill="black" stroke="black" points="980.62,-261.59 970.09,-262.81 979.08,-268.42 980.62,-261.59"/>
</g>
<!-- org.springframework.cloud\nspring&#45;cloud&#45;contract&#45;dependencies\n3.1.0\n -->
<g id="node20" class="node">
<title>org.springframework.cloud\nspring&#45;cloud&#45;contract&#45;dependencies\n3.1.0\n</title>
<g id="a_node20"><a target="_blank" xlink:href="https://repo1.maven.org/maven2/org/springframework/cloud/spring-cloud-contract-dependencies/3.1.0/spring-cloud-contract-dependencies-3.1.0.pom" xlink:title="org.springframework.cloud\nspring&#45;cloud&#45;contract&#45;dependencies\n3.1.0\n">
<polygon fill="#e6eaff" stroke="#e6eaff" points="1204.69,-265.2 988.53,-265.2 988.53,-206.4 1204.69,-206.4 1204.69,-265.2"/>
<text text-anchor="middle" x="1096.61" y="-248.4" font-size="14.00">org.springframework.cloud</text>
<text text-anchor="middle" x="1096.61" y="-231.6" font-size="14.00">spring&#45;cloud&#45;contract&#45;dependencies</text>
<text text-anchor="middle" x="1096.61" y="-214.8" font-size="14.00">3.1.0</text>
</a>
</g>
</g>
<!-- org.springframework.cloud\nspring&#45;cloud&#45;dependencies\n2021.0.0\n&#45;&gt;org.springframework.cloud\nspring&#45;cloud&#45;contract&#45;dependencies\n3.1.0\n -->
<g id="edge16" class="edge">
<title>org.springframework.cloud\nspring&#45;cloud&#45;dependencies\n2021.0.0\n&#45;&gt;org.springframework.cloud\nspring&#45;cloud&#45;contract&#45;dependencies\n3.1.0\n</title>
<path fill="none" stroke="black" d="M1779.92,-344.17C1629.49,-340.23 1321.78,-328.8 1218.61,-299.8 1194.82,-293.11 1170.29,-281.51 1149.53,-270.07"/>
<polygon fill="black" stroke="black" points="1151,-266.88 1140.57,-265.02 1147.56,-272.98 1151,-266.88"/>
</g>
<!-- org.springframework.cloud\nspring&#45;cloud&#45;openfeign&#45;dependencies\n3.1.0\n -->
<g id="node21" class="node">
<title>org.springframework.cloud\nspring&#45;cloud&#45;openfeign&#45;dependencies\n3.1.0\n</title>
<g id="a_node21"><a target="_blank" xlink:href="https://repo1.maven.org/maven2/org/springframework/cloud/spring-cloud-openfeign-dependencies/3.1.0/spring-cloud-openfeign-dependencies-3.1.0.pom" xlink:title="org.springframework.cloud\nspring&#45;cloud&#45;openfeign&#45;dependencies\n3.1.0\n">
<polygon fill="#e6eaff" stroke="#e6eaff" points="3759.58,-265.2 3531.64,-265.2 3531.64,-206.4 3759.58,-206.4 3759.58,-265.2"/>
<text text-anchor="middle" x="3645.61" y="-248.4" font-size="14.00">org.springframework.cloud</text>
<text text-anchor="middle" x="3645.61" y="-231.6" font-size="14.00">spring&#45;cloud&#45;openfeign&#45;dependencies</text>
<text text-anchor="middle" x="3645.61" y="-214.8" font-size="14.00">3.1.0</text>
</a>
</g>
</g>
<!-- org.springframework.cloud\nspring&#45;cloud&#45;dependencies\n2021.0.0\n&#45;&gt;org.springframework.cloud\nspring&#45;cloud&#45;openfeign&#45;dependencies\n3.1.0\n -->
<g id="edge17" class="edge">
<title>org.springframework.cloud\nspring&#45;cloud&#45;dependencies\n2021.0.0\n&#45;&gt;org.springframework.cloud\nspring&#45;cloud&#45;openfeign&#45;dependencies\n3.1.0\n</title>
<path fill="none" stroke="black" d="M1949.51,-343.66C2143.68,-338.08 2635.1,-322.77 3045.61,-299.8 3254.96,-288.09 3311.24,-296.54 3521.61,-265.22"/>
<polygon fill="black" stroke="black" points="3522.38,-268.65 3531.75,-263.7 3521.34,-261.73 3522.38,-268.65"/>
</g>
<!-- org.springframework.cloud\nspring&#45;cloud&#45;kubernetes&#45;dependencies\n2.1.0\n -->
<g id="node23" class="node">
<title>org.springframework.cloud\nspring&#45;cloud&#45;kubernetes&#45;dependencies\n2.1.0\n</title>
<g id="a_node23"><a target="_blank" xlink:href="https://repo1.maven.org/maven2/org/springframework/cloud/spring-cloud-kubernetes-dependencies/2.1.0/spring-cloud-kubernetes-dependencies-2.1.0.pom" xlink:title="org.springframework.cloud\nspring&#45;cloud&#45;kubernetes&#45;dependencies\n2.1.0\n">
<polygon fill="#e6eaff" stroke="#e6eaff" points="4009.74,-265.2 3777.48,-265.2 3777.48,-206.4 4009.74,-206.4 4009.74,-265.2"/>
<text text-anchor="middle" x="3893.61" y="-248.4" font-size="14.00">org.springframework.cloud</text>
<text text-anchor="middle" x="3893.61" y="-231.6" font-size="14.00">spring&#45;cloud&#45;kubernetes&#45;dependencies</text>
<text text-anchor="middle" x="3893.61" y="-214.8" font-size="14.00">2.1.0</text>
</a>
</g>
</g>
<!-- org.springframework.cloud\nspring&#45;cloud&#45;dependencies\n2021.0.0\n&#45;&gt;org.springframework.cloud\nspring&#45;cloud&#45;kubernetes&#45;dependencies\n2.1.0\n -->
<g id="edge18" class="edge">
<title>org.springframework.cloud\nspring&#45;cloud&#45;dependencies\n2021.0.0\n&#45;&gt;org.springframework.cloud\nspring&#45;cloud&#45;kubernetes&#45;dependencies\n2.1.0\n</title>
<path fill="none" stroke="black" d="M1949.39,-344C2163.32,-338.77 2742.36,-323.41 3224.61,-299.8 3463.28,-288.11 3527.07,-299.19 3767.19,-265.12"/>
<polygon fill="black" stroke="black" points="3767.88,-268.56 3777.28,-263.68 3766.89,-261.63 3767.88,-268.56"/>
</g>
<!-- org.springframework.cloud\nspring&#45;cloud&#45;netflix&#45;dependencies\n3.1.0\n&#45;&gt;org.springframework.cloud\nspring&#45;cloud&#45;dependencies&#45;parent\n3.1.0\n -->
<g id="edge20" class="edge">
<title>org.springframework.cloud\nspring&#45;cloud&#45;netflix&#45;dependencies\n3.1.0\n&#45;&gt;org.springframework.cloud\nspring&#45;cloud&#45;dependencies&#45;parent\n3.1.0\n</title>
<path fill="none" stroke="black" stroke-dasharray="5,2" d="M1664.61,-206.54C1711.92,-191.34 1770.38,-172.56 1819.08,-156.92"/>
<polygon fill="black" stroke="black" points="1820.23,-160.23 1828.68,-153.84 1818.09,-153.57 1820.23,-160.23"/>
</g>
<!-- org.springframework.cloud\nspring&#45;cloud&#45;stream&#45;dependencies\n3.2.1\n&#45;&gt;org.springframework.cloud\nspring&#45;cloud&#45;dependencies&#45;parent\n3.1.0\n -->
<g id="edge21" class="edge">
<title>org.springframework.cloud\nspring&#45;cloud&#45;stream&#45;dependencies\n3.2.1\n&#45;&gt;org.springframework.cloud\nspring&#45;cloud&#45;dependencies&#45;parent\n3.1.0\n</title>
<path fill="none" stroke="black" stroke-dasharray="5,2" d="M1832.26,-206.39C1846.78,-192.49 1864.39,-175.62 1879.76,-160.9"/>
<polygon fill="black" stroke="black" points="1882.3,-163.31 1887.1,-153.86 1877.46,-158.25 1882.3,-163.31"/>
</g>
<!-- org.springframework.cloud\nspring&#45;cloud&#45;task&#45;dependencies\n2.4.0\n&#45;&gt;org.springframework.cloud\nspring&#45;cloud&#45;dependencies&#45;parent\n3.1.0\n -->
<g id="edge22" class="edge">
<title>org.springframework.cloud\nspring&#45;cloud&#45;task&#45;dependencies\n2.4.0\n&#45;&gt;org.springframework.cloud\nspring&#45;cloud&#45;dependencies&#45;parent\n3.1.0\n</title>
<path fill="none" stroke="black" stroke-dasharray="5,2" d="M1454.86,-208.59C1457.81,-207.91 1460.73,-207.24 1463.61,-206.6 1578.56,-181.08 1711.29,-158.1 1803.24,-143.19"/>
<polygon fill="black" stroke="black" points="1803.81,-146.64 1813.12,-141.59 1802.69,-139.73 1803.81,-146.64"/>
</g>
<!-- org.springframework.cloud\nspring&#45;cloud&#45;circuitbreaker&#45;dependencies\n2.1.0\n&#45;&gt;org.springframework.cloud\nspring&#45;cloud&#45;dependencies&#45;parent\n3.1.0\n -->
<g id="edge24" class="edge">
<title>org.springframework.cloud\nspring&#45;cloud&#45;circuitbreaker&#45;dependencies\n2.1.0\n&#45;&gt;org.springframework.cloud\nspring&#45;cloud&#45;dependencies&#45;parent\n3.1.0\n</title>
<path fill="none" stroke="black" stroke-dasharray="5,2" d="M249.48,-207.87C252.21,-207.43 254.92,-207.01 257.61,-206.6 426.18,-181.14 469.47,-182.62 639.61,-171.8 1068.62,-144.52 1579.81,-132.07 1802.98,-127.63"/>
<polygon fill="black" stroke="black" points="1803.13,-131.12 1813.06,-127.43 1802.99,-124.13 1803.13,-131.12"/>
</g>
<!-- io.github.resilience4j\nresilience4j&#45;bom\n1.7.0\n -->
<g id="node8" class="node">
<title>io.github.resilience4j\nresilience4j&#45;bom\n1.7.0\n</title>
<g id="a_node8"><a target="_blank" xlink:href="https://repo1.maven.org/maven2/io/github/resilience4j/resilience4j-bom/1.7.0/resilience4j-bom-1.7.0.pom" xlink:title="io.github.resilience4j\nresilience4j&#45;bom\n1.7.0\n">
<polygon fill="#e6eaff" stroke="#e6eaff" points="191.81,-154 57.41,-154 57.41,-95.2 191.81,-95.2 191.81,-154"/>
<text text-anchor="middle" x="124.61" y="-137.2" font-size="14.00">io.github.resilience4j</text>
<text text-anchor="middle" x="124.61" y="-120.4" font-size="14.00">resilience4j&#45;bom</text>
<text text-anchor="middle" x="124.61" y="-103.6" font-size="14.00">1.7.0</text>
</a>
</g>
</g>
<!-- org.springframework.cloud\nspring&#45;cloud&#45;circuitbreaker&#45;dependencies\n2.1.0\n&#45;&gt;io.github.resilience4j\nresilience4j&#45;bom\n1.7.0\n -->
<g id="edge23" class="edge">
<title>org.springframework.cloud\nspring&#45;cloud&#45;circuitbreaker&#45;dependencies\n2.1.0\n&#45;&gt;io.github.resilience4j\nresilience4j&#45;bom\n1.7.0\n</title>
<path fill="none" stroke="black" d="M124.61,-206.39C124.61,-193.5 124.61,-178.06 124.61,-164.14"/>
<polygon fill="black" stroke="black" points="128.11,-163.86 124.61,-153.86 121.11,-163.86 128.11,-163.86"/>
</g>
<!-- org.springframework.cloud\nspring&#45;cloud&#45;config&#45;dependencies\n3.1.0\n&#45;&gt;org.springframework.cloud\nspring&#45;cloud&#45;dependencies&#45;parent\n3.1.0\n -->
<g id="edge25" class="edge">
<title>org.springframework.cloud\nspring&#45;cloud&#45;config&#45;dependencies\n3.1.0\n&#45;&gt;org.springframework.cloud\nspring&#45;cloud&#45;dependencies&#45;parent\n3.1.0\n</title>
<path fill="none" stroke="black" stroke-dasharray="5,2" d="M1999.47,-206.39C1985.22,-192.49 1967.91,-175.62 1952.81,-160.9"/>
<polygon fill="black" stroke="black" points="1955.2,-158.34 1945.6,-153.86 1950.31,-163.35 1955.2,-158.34"/>
</g>
<!-- org.springframework.cloud\nspring&#45;cloud&#45;function&#45;dependencies\n3.2.1\n&#45;&gt;org.springframework.cloud\nspring&#45;cloud&#45;dependencies&#45;parent\n3.1.0\n -->
<g id="edge26" class="edge">
<title>org.springframework.cloud\nspring&#45;cloud&#45;function&#45;dependencies\n3.2.1\n&#45;&gt;org.springframework.cloud\nspring&#45;cloud&#45;dependencies&#45;parent\n3.1.0\n</title>
<path fill="none" stroke="black" stroke-dasharray="5,2" d="M2386.37,-208.45C2383.42,-207.82 2380.5,-207.2 2377.61,-206.6 2259.57,-182.15 2123.53,-158.84 2029.99,-143.55"/>
<polygon fill="black" stroke="black" points="2030.37,-140.07 2019.94,-141.91 2029.25,-146.98 2030.37,-140.07"/>
</g>
<!-- org.springframework.cloud\nspring&#45;cloud&#45;gateway&#45;dependencies\n3.1.0\n&#45;&gt;org.springframework.cloud\nspring&#45;cloud&#45;dependencies&#45;parent\n3.1.0\n -->
<g id="edge27" class="edge">
<title>org.springframework.cloud\nspring&#45;cloud&#45;gateway&#45;dependencies\n3.1.0\n&#45;&gt;org.springframework.cloud\nspring&#45;cloud&#45;dependencies&#45;parent\n3.1.0\n</title>
<path fill="none" stroke="black" stroke-dasharray="5,2" d="M2170.83,-206.54C2123.1,-191.34 2064.13,-172.56 2015,-156.92"/>
<polygon fill="black" stroke="black" points="2015.9,-153.54 2005.31,-153.84 2013.78,-160.21 2015.9,-153.54"/>
</g>
<!-- org.springframework.cloud\nspring&#45;cloud&#45;consul&#45;dependencies\n3.1.0\n&#45;&gt;org.springframework.cloud\nspring&#45;cloud&#45;dependencies&#45;parent\n3.1.0\n -->
<g id="edge28" class="edge">
<title>org.springframework.cloud\nspring&#45;cloud&#45;consul&#45;dependencies\n3.1.0\n&#45;&gt;org.springframework.cloud\nspring&#45;cloud&#45;dependencies&#45;parent\n3.1.0\n</title>
<path fill="none" stroke="black" stroke-dasharray="5,2" d="M2622.36,-208.26C2619.41,-207.68 2616.49,-207.13 2613.61,-206.6 2409.58,-169.45 2168.68,-145.89 2030.17,-134.27"/>
<polygon fill="black" stroke="black" points="2030.22,-130.76 2019.97,-133.42 2029.64,-137.74 2030.22,-130.76"/>
</g>
<!-- org.springframework.cloud\nspring&#45;cloud&#45;sleuth&#45;dependencies\n3.1.0\n&#45;&gt;org.springframework.cloud\nspring&#45;cloud&#45;dependencies&#45;parent\n3.1.0\n -->
<g id="edge30" class="edge">
<title>org.springframework.cloud\nspring&#45;cloud&#45;sleuth&#45;dependencies\n3.1.0\n&#45;&gt;org.springframework.cloud\nspring&#45;cloud&#45;dependencies&#45;parent\n3.1.0\n</title>
<path fill="none" stroke="black" stroke-dasharray="5,2" d="M3091.91,-208.16C3089.12,-207.61 3086.35,-207.09 3083.61,-206.6 2938.43,-180.64 2900.62,-183.6 2753.61,-171.8 2495.44,-151.08 2191.71,-136.84 2030.54,-130.08"/>
<polygon fill="black" stroke="black" points="2030.27,-126.57 2020.13,-129.65 2029.98,-133.56 2030.27,-126.57"/>
</g>
<!-- io.zipkin.brave\nbrave&#45;bom\n5.13.2\n -->
<g id="node14" class="node">
<title>io.zipkin.brave\nbrave&#45;bom\n5.13.2\n</title>
<g id="a_node14"><a target="_blank" xlink:href="https://repo1.maven.org/maven2/io/zipkin/brave/brave-bom/5.13.2/brave-bom-5.13.2.pom" xlink:title="io.zipkin.brave\nbrave&#45;bom\n5.13.2\n">
<polygon fill="#e6eaff" stroke="#e6eaff" points="3244.59,-154 3144.63,-154 3144.63,-95.2 3244.59,-95.2 3244.59,-154"/>
<text text-anchor="middle" x="3194.61" y="-137.2" font-size="14.00">io.zipkin.brave</text>
<text text-anchor="middle" x="3194.61" y="-120.4" font-size="14.00">brave&#45;bom</text>
<text text-anchor="middle" x="3194.61" y="-103.6" font-size="14.00">5.13.2</text>
</a>
</g>
</g>
<!-- org.springframework.cloud\nspring&#45;cloud&#45;sleuth&#45;dependencies\n3.1.0\n&#45;&gt;io.zipkin.brave\nbrave&#45;bom\n5.13.2\n -->
<g id="edge29" class="edge">
<title>org.springframework.cloud\nspring&#45;cloud&#45;sleuth&#45;dependencies\n3.1.0\n&#45;&gt;io.zipkin.brave\nbrave&#45;bom\n5.13.2\n</title>
<path fill="none" stroke="black" d="M3194.61,-206.39C3194.61,-193.5 3194.61,-178.06 3194.61,-164.14"/>
<polygon fill="black" stroke="black" points="3198.11,-163.86 3194.61,-153.86 3191.11,-163.86 3198.11,-163.86"/>
</g>
<!-- io.zipkin.reporter2\nzipkin&#45;reporter&#45;bom\n2.16.1\n -->
<g id="node15" class="node">
<title>io.zipkin.reporter2\nzipkin&#45;reporter&#45;bom\n2.16.1\n</title>
<g id="a_node15"><a target="_blank" xlink:href="https://repo1.maven.org/maven2/io/zipkin/reporter2/zipkin-reporter-bom/2.16.1/zipkin-reporter-bom-2.16.1.pom" xlink:title="io.zipkin.reporter2\nzipkin&#45;reporter&#45;bom\n2.16.1\n">
<polygon fill="#e6eaff" stroke="#e6eaff" points="3259.12,-58.6 3130.1,-58.6 3130.1,0.2 3259.12,0.2 3259.12,-58.6"/>
<text text-anchor="middle" x="3194.61" y="-41.8" font-size="14.00">io.zipkin.reporter2</text>
<text text-anchor="middle" x="3194.61" y="-25" font-size="14.00">zipkin&#45;reporter&#45;bom</text>
<text text-anchor="middle" x="3194.61" y="-8.2" font-size="14.00">2.16.1</text>
</a>
</g>
</g>
<!-- io.zipkin.brave\nbrave&#45;bom\n5.13.2\n&#45;&gt;io.zipkin.reporter2\nzipkin&#45;reporter&#45;bom\n2.16.1\n -->
<g id="edge31" class="edge">
<title>io.zipkin.brave\nbrave&#45;bom\n5.13.2\n&#45;&gt;io.zipkin.reporter2\nzipkin&#45;reporter&#45;bom\n2.16.1\n</title>
<path fill="none" stroke="black" d="M3194.61,-95.32C3194.61,-86.99 3194.61,-77.72 3194.61,-68.85"/>
<polygon fill="black" stroke="black" points="3198.11,-68.7 3194.61,-58.7 3191.11,-68.7 3198.11,-68.7"/>
</g>
<!-- org.springframework.cloud\nspring&#45;cloud&#45;vault&#45;dependencies\n3.1.0\n&#45;&gt;org.springframework.cloud\nspring&#45;cloud&#45;dependencies&#45;parent\n3.1.0\n -->
<g id="edge32" class="edge">
<title>org.springframework.cloud\nspring&#45;cloud&#45;vault&#45;dependencies\n3.1.0\n&#45;&gt;org.springframework.cloud\nspring&#45;cloud&#45;dependencies&#45;parent\n3.1.0\n</title>
<path fill="none" stroke="black" stroke-dasharray="5,2" d="M3314.67,-208.23C3311.62,-207.65 3308.6,-207.1 3305.61,-206.6 3115.22,-174.57 3065.28,-184.19 2872.61,-171.8 2568.42,-152.23 2209.31,-136.99 2030.17,-129.91"/>
<polygon fill="black" stroke="black" points="2030.07,-126.41 2019.94,-129.51 2029.8,-133.4 2030.07,-126.41"/>
</g>
<!-- org.springframework.cloud\nspring&#45;cloud&#45;zookeeper&#45;dependencies\n3.1.0\n&#45;&gt;org.springframework.cloud\nspring&#45;cloud&#45;dependencies&#45;parent\n3.1.0\n -->
<g id="edge33" class="edge">
<title>org.springframework.cloud\nspring&#45;cloud&#45;zookeeper&#45;dependencies\n3.1.0\n&#45;&gt;org.springframework.cloud\nspring&#45;cloud&#45;dependencies&#45;parent\n3.1.0\n</title>
<path fill="none" stroke="black" stroke-dasharray="5,2" d="M496.35,-208.14C499.47,-207.6 502.56,-207.08 505.61,-206.6 673.55,-179.95 716.96,-183.35 886.61,-171.8 1219.13,-149.17 1612.84,-135.02 1802.81,-128.98"/>
<polygon fill="black" stroke="black" points="1803.2,-132.47 1813.09,-128.66 1802.98,-125.48 1803.2,-132.47"/>
</g>
<!-- org.springframework.cloud\nspring&#45;cloud&#45;cloudfoundry&#45;dependencies\n3.1.0\n&#45;&gt;org.springframework.cloud\nspring&#45;cloud&#45;dependencies&#45;parent\n3.1.0\n -->
<g id="edge34" class="edge">
<title>org.springframework.cloud\nspring&#45;cloud&#45;cloudfoundry&#45;dependencies\n3.1.0\n&#45;&gt;org.springframework.cloud\nspring&#45;cloud&#45;dependencies&#45;parent\n3.1.0\n</title>
<path fill="none" stroke="black" stroke-dasharray="5,2" d="M761.08,-208.23C764.28,-207.67 767.47,-207.12 770.61,-206.6 898.24,-185.43 930.72,-183.02 1059.61,-171.8 1325.5,-148.65 1638.88,-135.28 1803.11,-129.33"/>
<polygon fill="black" stroke="black" points="1803.36,-132.83 1813.23,-128.97 1803.11,-125.83 1803.36,-132.83"/>
</g>
<!-- org.springframework.cloud\nspring&#45;cloud&#45;bus&#45;dependencies\n3.1.0\n&#45;&gt;org.springframework.cloud\nspring&#45;cloud&#45;dependencies&#45;parent\n3.1.0\n -->
<g id="edge35" class="edge">
<title>org.springframework.cloud\nspring&#45;cloud&#45;bus&#45;dependencies\n3.1.0\n&#45;&gt;org.springframework.cloud\nspring&#45;cloud&#45;dependencies&#45;parent\n3.1.0\n</title>
<path fill="none" stroke="black" stroke-dasharray="5,2" d="M970.09,-208.79C973.3,-208.03 976.48,-207.3 979.61,-206.6 1064.66,-187.55 1086.08,-182.25 1172.61,-171.8 1395,-144.94 1656.8,-133.28 1803.04,-128.55"/>
<polygon fill="black" stroke="black" points="1803.48,-132.03 1813.36,-128.22 1803.26,-125.04 1803.48,-132.03"/>
</g>
<!-- org.springframework.cloud\nspring&#45;cloud&#45;contract&#45;dependencies\n3.1.0\n&#45;&gt;org.springframework.cloud\nspring&#45;cloud&#45;dependencies&#45;parent\n3.1.0\n -->
<g id="edge36" class="edge">
<title>org.springframework.cloud\nspring&#45;cloud&#45;contract&#45;dependencies\n3.1.0\n&#45;&gt;org.springframework.cloud\nspring&#45;cloud&#45;dependencies&#45;parent\n3.1.0\n</title>
<path fill="none" stroke="black" stroke-dasharray="5,2" d="M1140.55,-206.52C1163,-193.55 1191.28,-179.4 1218.61,-171.8 1325.31,-142.11 1634.3,-131.27 1803.16,-127.5"/>
<polygon fill="black" stroke="black" points="1803.41,-130.99 1813.33,-127.28 1803.25,-124 1803.41,-130.99"/>
</g>
<!-- org.springframework.cloud\nspring&#45;cloud&#45;openfeign&#45;dependencies\n3.1.0\n&#45;&gt;org.springframework.cloud\nspring&#45;cloud&#45;dependencies&#45;parent\n3.1.0\n -->
<g id="edge38" class="edge">
<title>org.springframework.cloud\nspring&#45;cloud&#45;openfeign&#45;dependencies\n3.1.0\n&#45;&gt;org.springframework.cloud\nspring&#45;cloud&#45;dependencies&#45;parent\n3.1.0\n</title>
<path fill="none" stroke="black" stroke-dasharray="5,2" d="M3531.75,-207.89C3529.01,-207.44 3526.3,-207 3523.61,-206.6 3308.58,-174.28 3252.7,-184.02 3035.61,-171.8 2668.11,-151.12 2232.24,-135.76 2030.06,-129.16"/>
<polygon fill="black" stroke="black" points="2030.13,-125.66 2020.02,-128.83 2029.9,-132.66 2030.13,-125.66"/>
</g>
<!-- io.github.openfeign\nfeign&#45;bom\n11.7\n -->
<g id="node22" class="node">
<title>io.github.openfeign\nfeign&#45;bom\n11.7\n</title>
<g id="a_node22"><a target="_blank" xlink:href="https://repo1.maven.org/maven2/io/github/openfeign/feign-bom/11.7/feign-bom-11.7.pom" xlink:title="io.github.openfeign\nfeign&#45;bom\n11.7\n">
<polygon fill="#e6eaff" stroke="#e6eaff" points="3708.26,-154 3582.96,-154 3582.96,-95.2 3708.26,-95.2 3708.26,-154"/>
<text text-anchor="middle" x="3645.61" y="-137.2" font-size="14.00">io.github.openfeign</text>
<text text-anchor="middle" x="3645.61" y="-120.4" font-size="14.00">feign&#45;bom</text>
<text text-anchor="middle" x="3645.61" y="-103.6" font-size="14.00">11.7</text>
</a>
</g>
</g>
<!-- org.springframework.cloud\nspring&#45;cloud&#45;openfeign&#45;dependencies\n3.1.0\n&#45;&gt;io.github.openfeign\nfeign&#45;bom\n11.7\n -->
<g id="edge37" class="edge">
<title>org.springframework.cloud\nspring&#45;cloud&#45;openfeign&#45;dependencies\n3.1.0\n&#45;&gt;io.github.openfeign\nfeign&#45;bom\n11.7\n</title>
<path fill="none" stroke="black" d="M3645.61,-206.39C3645.61,-193.5 3645.61,-178.06 3645.61,-164.14"/>
<polygon fill="black" stroke="black" points="3649.11,-163.86 3645.61,-153.86 3642.11,-163.86 3649.11,-163.86"/>
</g>
<!-- org.springframework.cloud\nspring&#45;cloud&#45;kubernetes&#45;dependencies\n2.1.0\n&#45;&gt;org.springframework.cloud\nspring&#45;cloud&#45;dependencies&#45;parent\n3.1.0\n -->
<g id="edge40" class="edge">
<title>org.springframework.cloud\nspring&#45;cloud&#45;kubernetes&#45;dependencies\n2.1.0\n&#45;&gt;org.springframework.cloud\nspring&#45;cloud&#45;dependencies&#45;parent\n3.1.0\n</title>
<path fill="none" stroke="black" stroke-dasharray="5,2" d="M3777.28,-207.92C3774.37,-207.45 3771.47,-207.01 3768.61,-206.6 3525.72,-171.76 3462.69,-183.89 3217.61,-171.8 2778.81,-150.16 2256.27,-134.74 2030.16,-128.58"/>
<polygon fill="black" stroke="black" points="2030.04,-125.07 2019.95,-128.3 2029.85,-132.07 2030.04,-125.07"/>
</g>
<!-- io.fabric8\nkubernetes&#45;client&#45;bom\n5.9.0\n -->
<g id="node24" class="node">
<title>io.fabric8\nkubernetes&#45;client&#45;bom\n5.9.0\n</title>
<g id="a_node24"><a target="_blank" xlink:href="https://repo1.maven.org/maven2/io/fabric8/kubernetes-client-bom/5.9.0/kubernetes-client-bom-5.9.0.pom" xlink:title="io.fabric8\nkubernetes&#45;client&#45;bom\n5.9.0\n">
<polygon fill="#e6eaff" stroke="#e6eaff" points="3964.56,-154 3822.66,-154 3822.66,-95.2 3964.56,-95.2 3964.56,-154"/>
<text text-anchor="middle" x="3893.61" y="-137.2" font-size="14.00">io.fabric8</text>
<text text-anchor="middle" x="3893.61" y="-120.4" font-size="14.00">kubernetes&#45;client&#45;bom</text>
<text text-anchor="middle" x="3893.61" y="-103.6" font-size="14.00">5.9.0</text>
</a>
</g>
</g>
<!-- org.springframework.cloud\nspring&#45;cloud&#45;kubernetes&#45;dependencies\n2.1.0\n&#45;&gt;io.fabric8\nkubernetes&#45;client&#45;bom\n5.9.0\n -->
<g id="edge39" class="edge">
<title>org.springframework.cloud\nspring&#45;cloud&#45;kubernetes&#45;dependencies\n2.1.0\n&#45;&gt;io.fabric8\nkubernetes&#45;client&#45;bom\n5.9.0\n</title>
<path fill="none" stroke="black" d="M3893.61,-206.39C3893.61,-193.5 3893.61,-178.06 3893.61,-164.14"/>
<polygon fill="black" stroke="black" points="3897.11,-163.86 3893.61,-153.86 3890.11,-163.86 3897.11,-163.86"/>
</g>
<!-- org.openrewrite\ndependency&#45;viz\n0.0.1\n -->
<g id="node25" class="node">
<title>org.openrewrite\ndependency&#45;viz\n0.0.1\n</title>
<g id="a_node25"><a target="_blank" xlink:href="https://repo1.maven.org/maven2/org/openrewrite/dependency-viz/0.0.1/dependency-viz-0.0.1.pom" xlink:title="org.openrewrite\ndependency&#45;viz\n0.0.1\n">
<polygon fill="#f9a91b" stroke="#f9a91b" points="1917.12,-471.8 1812.1,-471.8 1812.1,-413 1917.12,-413 1917.12,-471.8"/>
<text text-anchor="middle" x="1864.61" y="-455" font-size="14.00">org.openrewrite</text>
<text text-anchor="middle" x="1864.61" y="-438.2" font-size="14.00">dependency&#45;viz</text>
<text text-anchor="middle" x="1864.61" y="-421.4" font-size="14.00">0.0.1</text>
</a>
</g>
</g>
<!-- org.openrewrite\ndependency&#45;viz\n0.0.1\n&#45;&gt;org.springframework.cloud\nspring&#45;cloud&#45;dependencies\n2021.0.0\n -->
<g id="edge41" class="edge">
<title>org.openrewrite\ndependency&#45;viz\n0.0.1\n&#45;&gt;org.springframework.cloud\nspring&#45;cloud&#45;dependencies\n2021.0.0\n</title>
<path fill="none" stroke="black" d="M1864.61,-413.12C1864.61,-404.79 1864.61,-395.52 1864.61,-386.65"/>
<polygon fill="black" stroke="black" points="1868.11,-386.5 1864.61,-376.5 1861.11,-386.5 1868.11,-386.5"/>
</g>
</g>
</svg>
